{"glyphs":{":":{"x_min":0,"x_max":238,"ha":238,"o":"m 162 470 q 188 470 203 454 q 218 437 218 414 q 218 401 213 388 q 208 376 200 366 q 191 356 179 350 q 167 344 153 344 q 126 344 109 366 q 92 387 100 419 q 105 442 122 456 q 138 470 162 470 z m 110 271 q 136 271 151 254 q 166 238 166 215 q 166 189 148 167 q 130 145 102 145 q 75 145 58 167 q 40 189 48 221 q 54 243 70 257 q 86 271 110 271 z"},"$":{"x_min":0,"x_max":538,"ha":538,"o":"m 394 513 q 403 539 403 570 q 403 606 389 634 q 375 662 349 675 l 344 612 q 345 602 339 594 q 333 586 323 580 q 313 575 302 574 q 290 572 280 576 l 301 682 q 282 679 263 670 q 244 660 229 646 q 214 633 205 618 q 196 602 196 587 q 196 563 218 542 q 241 521 275 500 q 309 479 348 456 q 388 433 422 406 q 456 380 478 348 q 501 317 501 277 q 501 246 486 214 q 471 182 444 154 q 417 126 380 106 q 343 85 299 77 l 298 60 q 299 50 293 42 q 287 34 277 28 q 267 23 256 22 q 244 20 234 24 l 244 73 q 208 75 175 86 q 142 97 116 116 q 91 134 76 159 q 60 184 60 214 q 60 237 69 258 q 78 280 94 296 q 109 312 129 319 q 149 326 170 321 q 164 287 168 256 q 173 224 184 198 q 196 173 214 154 q 232 136 254 127 l 265 184 q 271 199 283 204 q 295 209 309 209 l 302 118 q 323 120 342 129 q 360 138 374 152 q 388 165 396 181 q 405 197 405 212 q 405 238 382 262 q 360 285 327 309 q 294 333 254 358 q 215 383 182 411 q 149 439 126 472 q 104 504 104 543 q 104 573 118 603 q 132 633 158 658 q 185 682 222 698 q 260 714 307 715 l 311 736 q 317 751 329 756 q 341 761 355 761 l 351 713 q 383 709 414 698 q 444 687 467 672 q 490 656 504 636 q 518 617 518 596 q 518 580 509 564 q 500 549 484 538 q 467 527 444 520 q 422 513 394 513 z"},"?":{"x_min":0,"x_max":567,"ha":567,"o":"m 317 861 q 366 861 410 848 q 453 836 486 815 q 519 794 538 766 q 557 737 557 705 q 557 665 529 626 q 501 588 459 551 q 417 514 368 478 q 319 442 277 408 q 235 375 207 343 q 179 311 179 281 q 156 284 146 292 q 137 300 135 318 q 134 360 154 398 q 173 435 203 471 q 233 507 268 542 q 303 577 333 612 q 363 648 383 685 q 403 722 403 762 q 403 794 388 812 q 373 830 343 830 q 316 830 291 816 q 266 802 245 778 q 224 753 210 720 q 196 688 191 651 q 153 653 131 674 q 109 695 109 729 q 109 757 125 781 q 141 805 169 823 q 197 841 235 851 q 273 861 317 861 z m 132 240 q 161 240 178 220 q 195 201 195 173 q 195 142 174 116 q 154 91 122 91 q 107 91 94 98 q 81 105 72 117 q 64 129 61 146 q 58 162 63 181 q 69 207 87 224 q 105 240 132 240 z"},"<":{"x_min":0,"x_max":419,"ha":419,"o":"m 75 376 l 356 512 q 369 499 374 479 q 380 459 378 440 q 377 420 368 405 q 359 390 344 386 l 107 320 l 264 254 q 279 246 287 230 q 295 214 297 196 q 299 178 294 160 q 288 141 276 127 l 75 264 q 58 276 50 292 q 41 307 41 323 q 41 339 50 354 q 58 368 75 376 z"},"'":{"x_min":0,"x_max":200,"ha":200,"o":"m 111 697 q 119 703 127 703 q 137 703 146 696 q 155 690 160 679 l 116 486 q 95 481 80 486 q 64 491 54 502 q 44 512 41 525 q 38 538 43 548 z"},"=":{"x_min":0,"x_max":533,"ha":533,"o":"m 157 502 l 491 501 q 494 485 492 468 q 489 451 480 437 q 472 423 458 414 q 445 406 426 406 l 82 406 q 79 423 84 440 q 88 458 98 472 q 109 485 124 494 q 139 502 157 502 z m 117 315 l 451 314 q 454 298 452 281 q 449 264 440 250 q 432 236 418 228 q 405 219 386 219 l 42 219 q 39 236 44 254 q 48 271 58 284 q 69 298 84 306 q 99 315 117 315 z"},"a":{"x_min":0,"x_max":559,"ha":559,"o":"m 450 381 q 440 362 427 336 q 414 310 402 282 q 390 255 381 228 q 372 202 370 180 q 368 159 375 146 q 382 133 401 133 q 430 133 465 162 q 500 190 526 236 l 569 226 q 527 155 481 122 q 435 88 379 88 q 334 88 302 108 q 270 127 253 162 q 227 128 188 108 q 149 88 103 88 q 39 88 0 126 q -39 164 -39 229 q -39 275 -19 316 q 1 357 36 388 q 71 418 118 436 q 165 453 219 453 q 268 453 301 438 l 308 460 q 329 460 353 454 q 377 449 398 439 q 419 429 434 414 q 448 400 450 381 z m 290 399 q 286 400 282 400 q 277 401 271 401 q 241 401 211 384 q 181 367 157 340 q 133 312 118 278 q 103 244 103 210 q 103 151 147 151 q 173 151 198 173 q 224 195 239 228 z"},"L":{"x_min":0,"x_max":2097,"ha":2097,"o":"m 1613 730 q 1639 795 1668 870 q 1698 946 1734 1021 q 1770 1096 1814 1165 q 1858 1234 1913 1287 q 1968 1340 2036 1372 q 2105 1404 2189 1404 q 2248 1404 2295 1388 q 2342 1371 2374 1340 q 2407 1310 2424 1266 q 2441 1222 2441 1168 q 2441 1102 2416 1039 q 2391 976 2346 921 q 2300 866 2236 820 q 2173 773 2096 740 q 2020 707 1932 689 q 1845 671 1752 672 q 1722 586 1688 502 q 1654 417 1614 340 q 1573 264 1524 199 q 1476 134 1417 89 q 1492 47 1556 8 q 1619 -32 1676 -62 q 1732 -92 1783 -110 q 1834 -128 1882 -128 q 1946 -128 2009 -95 q 2072 -62 2129 3 q 2149 9 2162 2 q 2175 -4 2175 -20 q 2142 -90 2112 -139 q 2081 -188 2049 -218 q 2017 -249 1982 -263 q 1948 -277 1908 -277 q 1810 -277 1676 -196 q 1543 -114 1366 55 q 1311 23 1248 6 q 1186 -10 1121 -10 q 1063 -10 1010 3 q 958 16 918 38 q 878 61 855 91 q 832 121 832 154 q 832 199 874 224 q 917 249 992 249 q 1052 249 1114 232 q 1175 215 1249 179 q 1310 216 1360 270 q 1409 325 1450 392 q 1492 458 1528 534 q 1563 609 1595 687 q 1479 708 1376 758 q 1272 808 1190 880 q 1108 953 1052 1045 q 996 1137 975 1242 q 920 1232 856 1224 q 792 1217 725 1208 q 658 1198 591 1184 q 524 1170 461 1148 q 398 1125 342 1091 q 287 1057 243 1007 q 190 947 162 871 q 135 795 135 715 q 135 626 169 550 q 203 473 263 417 q 323 361 405 329 q 487 297 583 297 q 673 297 750 325 q 826 353 882 403 q 939 453 970 522 q 1002 590 1002 670 q 1002 738 980 794 q 957 850 916 890 q 876 931 820 954 q 764 976 697 976 q 630 976 572 954 q 515 932 472 894 q 430 856 406 804 q 381 753 381 694 q 381 642 396 606 q 410 569 434 546 q 458 523 488 512 q 519 502 550 502 q 581 502 610 511 q 640 520 663 536 q 686 553 700 576 q 714 599 714 626 q 714 663 682 701 q 687 719 703 729 q 719 739 738 739 q 768 739 783 719 q 798 699 798 668 q 798 620 776 582 q 753 543 716 516 q 679 489 632 475 q 585 461 536 461 q 488 461 442 476 q 397 490 361 520 q 325 550 304 596 q 282 643 282 707 q 282 779 314 842 q 346 906 402 954 q 457 1002 531 1030 q 605 1057 688 1057 q 770 1057 838 1030 q 906 1003 955 954 q 1004 906 1031 838 q 1058 770 1058 689 q 1058 594 1021 514 q 984 433 919 374 q 854 315 764 282 q 674 249 569 249 q 452 249 348 290 q 245 330 168 400 q 90 470 45 564 q 0 657 0 762 q 0 863 42 954 q 83 1044 158 1109 q 212 1155 276 1184 q 341 1214 412 1232 q 483 1249 558 1257 q 632 1265 704 1270 q 776 1274 843 1278 q 910 1281 967 1288 q 961 1332 972 1371 q 982 1410 1006 1439 q 1029 1468 1064 1485 q 1098 1502 1139 1502 q 1190 1502 1220 1476 q 1249 1451 1249 1408 q 1249 1358 1210 1322 q 1170 1285 1097 1265 q 1112 1157 1156 1066 q 1201 975 1268 906 q 1336 837 1424 792 q 1511 747 1613 730 z m 1091 1308 q 1142 1321 1171 1346 q 1200 1372 1200 1404 q 1200 1424 1188 1438 q 1177 1452 1158 1452 q 1142 1452 1128 1441 q 1115 1430 1106 1410 q 1096 1391 1092 1364 q 1088 1338 1091 1308 z m 2196 1373 q 2134 1373 2082 1338 q 2031 1302 1989 1245 q 1947 1188 1913 1116 q 1879 1045 1852 973 q 1826 901 1806 834 q 1785 768 1769 722 q 1848 726 1922 746 q 1997 766 2062 798 q 2128 831 2182 874 q 2236 918 2276 968 q 2315 1019 2336 1075 q 2358 1131 2358 1189 q 2358 1274 2314 1324 q 2269 1373 2196 1373 z m 989 209 q 935 209 906 192 q 876 176 876 156 q 876 138 904 124 q 932 109 998 109 q 1049 109 1099 120 q 1149 130 1194 150 q 1140 177 1090 193 q 1040 209 989 209 z"},"3":{"x_min":0,"x_max":466,"ha":466,"o":"m 309 700 q 482 700 482 587 q 482 480 329 401 q 395 393 429 356 q 463 318 463 270 q 463 237 446 203 q 429 169 394 142 q 358 114 305 96 q 252 79 180 79 q 86 79 34 110 q -17 140 -16 197 q -15 234 6 256 q 26 277 56 277 q 76 277 93 269 q 93 189 118 148 q 143 107 192 107 q 222 107 247 121 q 272 135 290 157 q 308 179 318 206 q 328 233 328 259 q 328 280 320 298 q 313 317 297 330 q 281 342 256 347 q 231 352 195 347 q 178 342 170 352 q 163 362 174 376 q 212 400 246 432 q 280 464 305 497 q 330 530 344 562 q 359 595 359 620 q 359 645 346 657 q 332 669 308 669 q 283 669 256 656 q 230 642 206 618 q 181 595 160 562 q 139 529 124 490 q 86 492 68 510 q 50 528 50 556 q 50 586 70 612 q 90 639 124 658 q 159 678 206 689 q 254 700 309 700 z"},";":{"x_min":0,"x_max":272,"ha":272,"o":"m 166 470 q 192 470 207 454 q 222 437 222 414 q 222 401 217 388 q 212 376 204 366 q 195 356 183 350 q 171 344 157 344 q 130 344 113 366 q 96 387 104 419 q 109 442 126 456 q 142 470 166 470 z m 182 208 q 182 188 171 168 q 160 148 142 132 q 124 115 102 104 q 81 94 60 94 q 34 94 20 110 q 74 143 74 193 q 74 203 72 212 q 70 222 67 232 q 70 252 82 263 q 95 274 115 274 q 142 274 162 255 q 182 236 182 208 z"},"J":{"x_min":0,"x_max":1925,"ha":1925,"o":"m 2192 1152 q 2176 1143 2162 1132 q 2148 1120 2131 1102 q 2071 1039 2024 958 q 1977 876 1938 783 q 1899 690 1866 589 q 1833 488 1802 386 q 1770 284 1737 184 q 1704 85 1666 -4 q 1627 -94 1580 -170 q 1534 -246 1474 -302 q 1415 -357 1341 -388 q 1267 -420 1173 -420 q 1062 -420 980 -378 q 898 -335 853 -263 q 805 -274 754 -280 q 702 -287 648 -287 q 505 -287 386 -242 q 266 -197 180 -116 q 95 -35 48 76 q 0 188 0 321 q 0 455 48 568 q 96 680 182 762 q 268 843 386 890 q 505 937 647 938 q 722 1033 844 1084 q 966 1136 1116 1136 q 1244 1136 1350 1098 q 1456 1061 1533 990 q 1602 1018 1678 1038 q 1755 1058 1830 1076 q 1904 1094 1971 1112 q 2038 1129 2087 1151 q 2104 1159 2126 1168 q 2147 1177 2163 1185 q 2194 1188 2192 1152 z m 834 -228 q 811 -178 804 -120 q 798 -61 807 -3 q 816 55 840 109 q 865 163 903 204 q 941 245 992 270 q 1043 295 1106 295 q 1144 295 1175 282 q 1206 270 1228 248 q 1250 225 1262 193 q 1275 161 1275 121 q 1275 62 1248 7 q 1221 -48 1173 -96 q 1125 -144 1058 -182 q 992 -221 914 -246 q 944 -277 986 -294 q 1027 -310 1080 -310 q 1159 -310 1226 -274 q 1292 -238 1349 -176 q 1406 -115 1454 -32 q 1503 52 1546 148 q 1590 243 1629 345 q 1668 447 1706 547 q 1627 490 1526 490 q 1472 490 1429 506 q 1386 521 1356 550 q 1325 578 1308 618 q 1292 659 1292 709 q 1292 757 1307 796 q 1322 836 1348 868 q 1375 900 1412 926 q 1449 951 1493 972 q 1424 1031 1332 1063 q 1241 1095 1133 1095 q 1011 1095 912 1054 q 812 1012 746 934 q 878 921 965 874 q 1052 828 1098 766 q 1145 703 1152 634 q 1160 565 1132 506 q 1104 448 1042 410 q 981 372 889 372 q 823 372 767 393 q 711 414 669 450 q 627 487 600 536 q 573 586 564 642 q 556 699 566 760 q 577 822 611 883 q 508 870 423 822 q 338 775 277 700 q 216 626 182 528 q 149 431 149 318 q 149 196 188 93 q 228 -10 299 -85 q 370 -160 469 -202 q 568 -244 687 -244 q 725 -244 762 -240 q 799 -236 834 -228 z m 1545 921 q 1482 883 1442 829 q 1401 775 1401 698 q 1401 621 1442 576 q 1484 530 1553 530 q 1603 530 1650 554 q 1696 579 1735 624 q 1765 702 1796 773 q 1826 844 1858 904 q 1890 965 1924 1012 q 1958 1059 1996 1088 q 1956 1072 1905 1056 q 1854 1041 1798 1024 q 1743 1007 1686 987 q 1630 967 1580 941 q 1589 931 1608 906 q 1628 882 1648 851 q 1668 820 1684 788 q 1699 755 1699 730 q 1699 713 1690 701 q 1681 689 1661 684 q 1652 682 1642 684 q 1632 686 1623 692 q 1614 697 1608 704 q 1601 712 1599 721 q 1620 738 1620 766 q 1620 792 1605 826 q 1593 849 1578 875 q 1563 901 1545 921 z m 713 888 q 681 835 668 779 q 654 723 658 670 q 661 617 680 570 q 699 524 732 488 q 764 453 808 432 q 853 412 908 412 q 981 412 1028 446 q 1076 481 1095 534 q 1114 586 1102 647 q 1091 708 1045 761 q 999 814 917 850 q 835 886 713 888 z m 888 -214 q 961 -192 1024 -156 q 1088 -121 1134 -76 q 1181 -32 1208 20 q 1235 71 1235 124 q 1235 187 1200 222 q 1165 258 1108 258 q 1053 258 1008 234 q 963 211 930 172 q 896 134 875 84 q 854 34 848 -18 q 842 -71 852 -122 q 861 -173 888 -214 z"},"V":{"x_min":0,"x_max":2108,"ha":2108,"o":"m 951 658 q 1113 658 1200 587 q 1288 516 1288 385 q 1288 304 1254 224 q 1221 144 1162 72 q 1103 -1 1022 -63 q 941 -125 846 -170 q 752 -215 648 -240 q 543 -266 436 -266 q 334 -266 253 -242 q 172 -218 116 -172 q 60 -127 30 -62 q 0 4 0 87 q 0 169 30 251 q 59 333 113 411 q 167 489 245 560 q 323 632 419 694 q 515 756 628 806 q 742 857 868 891 q 852 938 825 984 q 798 1031 762 1068 q 727 1105 684 1128 q 640 1151 591 1151 q 572 1151 554 1144 q 536 1138 516 1121 q 507 1140 506 1157 q 505 1174 512 1188 q 520 1201 535 1209 q 550 1217 572 1217 q 606 1217 648 1203 q 690 1189 734 1154 q 778 1119 821 1058 q 864 997 900 902 q 983 930 1076 961 q 1170 992 1264 1028 q 1359 1064 1450 1106 q 1540 1149 1617 1200 q 1636 1217 1662 1237 q 1687 1257 1714 1274 q 1742 1291 1770 1302 q 1799 1314 1825 1314 q 1855 1314 1870 1300 q 1885 1285 1886 1265 q 1887 1245 1874 1224 q 1861 1204 1833 1192 q 1833 1228 1821 1242 q 1809 1257 1792 1257 q 1772 1257 1748 1244 q 1724 1230 1704 1212 q 1662 1175 1646 1132 q 1631 1088 1634 1040 q 1638 991 1656 938 q 1673 885 1698 827 q 1722 769 1749 706 q 1776 644 1797 578 q 1818 511 1830 441 q 1841 371 1835 298 q 1882 400 1926 501 q 1971 602 2018 694 q 2064 785 2114 864 q 2164 942 2222 1000 q 2279 1057 2346 1090 q 2414 1122 2495 1121 q 2524 1121 2543 1117 q 2562 1113 2574 1106 q 2585 1099 2589 1091 q 2593 1083 2593 1074 q 2593 1057 2577 1042 q 2561 1027 2532 1027 q 2517 1050 2498 1058 q 2480 1067 2454 1067 q 2401 1067 2352 1040 q 2303 1012 2257 964 q 2211 916 2168 850 q 2124 785 2083 709 q 2042 633 2002 550 q 1962 467 1923 385 q 1884 303 1846 224 q 1807 146 1769 78 l 1768 77 q 1729 5 1663 -70 q 1651 -71 1642 -66 q 1634 -61 1635 -42 q 1678 49 1686 132 q 1695 216 1682 294 q 1668 371 1640 444 q 1611 517 1579 586 q 1547 654 1519 720 q 1491 786 1479 851 q 1467 916 1478 980 q 1488 1043 1533 1108 q 1415 1044 1258 978 q 1100 911 918 848 q 945 755 951 658 z m 951 564 q 945 462 906 370 q 868 277 808 206 q 749 136 674 94 q 599 53 519 53 q 445 53 407 90 q 369 127 369 198 q 369 253 392 308 q 414 364 452 415 q 491 466 544 510 q 597 555 658 588 q 719 621 786 640 q 852 659 918 659 q 912 739 886 837 q 785 807 692 760 q 599 714 519 655 q 439 596 374 528 q 308 459 262 385 q 215 311 190 234 q 164 157 164 82 q 164 13 186 -42 q 208 -96 250 -134 q 292 -171 352 -191 q 413 -211 490 -211 q 575 -211 660 -188 q 746 -165 824 -124 q 902 -84 970 -30 q 1038 25 1088 88 q 1138 151 1166 220 q 1195 289 1195 357 q 1195 458 1132 511 q 1069 564 951 564 z m 421 189 q 421 90 528 90 q 597 90 664 130 q 732 171 786 238 q 841 305 876 392 q 912 478 918 570 q 861 570 802 554 q 743 538 688 510 q 632 483 584 446 q 535 408 499 366 q 463 324 442 278 q 421 233 421 189 z"},"\"":{"x_min":0,"x_max":340,"ha":340,"o":"m 111 697 q 119 703 127 703 q 137 703 146 696 q 155 690 160 679 l 116 486 q 95 481 80 486 q 64 491 54 502 q 44 512 41 525 q 38 538 43 548 z m 251 697 q 259 703 267 703 q 277 703 286 696 q 295 690 300 679 l 256 486 q 235 481 220 486 q 204 491 194 502 q 184 512 181 525 q 178 538 183 548 z"},"7":{"x_min":0,"x_max":439,"ha":439,"o":"m 72 216 l 304 628 l 109 564 q 72 560 50 578 q 28 597 21 622 q 14 646 22 670 q 29 694 51 701 q 70 691 94 684 q 117 677 142 673 q 168 669 194 667 q 220 665 244 665 q 268 665 289 666 q 310 668 327 670 q 350 674 360 670 q 370 665 372 654 q 374 644 370 630 q 366 616 360 600 q 337 543 314 472 q 292 401 271 329 q 250 257 231 192 q 212 127 196 83 q 121 83 86 120 q 52 158 72 216 z"},"S":{"x_min":0,"x_max":1841,"ha":1841,"o":"m 1169 1291 q 1006 1286 893 1214 q 780 1141 735 1011 q 804 1030 891 1030 q 1024 1030 1122 990 q 1220 949 1274 874 q 1347 891 1416 908 q 1484 924 1547 942 q 1539 1031 1558 1108 q 1577 1185 1616 1242 q 1656 1299 1714 1332 q 1771 1365 1841 1365 q 1912 1365 1954 1332 q 1996 1299 1996 1244 q 1996 1205 1974 1165 q 1952 1125 1912 1086 q 1871 1048 1814 1013 q 1757 978 1688 951 q 1694 904 1703 853 q 1712 802 1720 748 q 1728 694 1734 638 q 1740 582 1740 525 q 1740 359 1686 220 q 1632 80 1535 -21 q 1438 -122 1304 -178 q 1170 -235 1011 -235 q 870 -235 746 -191 q 622 -147 527 -69 q 432 9 371 116 q 310 224 296 351 q 39 115 39 -188 q 31 -204 17 -204 q 10 -204 4 -198 q -1 -192 1 -178 q 1 242 296 491 q 305 577 334 654 q 364 730 410 794 q 457 858 519 907 q 581 956 656 986 q 682 1057 727 1114 q 772 1171 833 1213 q 894 1255 970 1280 q 1045 1306 1131 1312 q 1183 1316 1219 1313 q 1255 1310 1278 1303 q 1300 1296 1310 1286 q 1320 1276 1320 1266 q 1320 1253 1305 1244 q 1290 1234 1265 1236 q 1263 1265 1237 1278 q 1211 1291 1169 1291 z m 1684 989 q 1746 1016 1796 1048 q 1846 1081 1882 1114 q 1917 1148 1936 1182 q 1956 1216 1956 1247 q 1956 1282 1933 1302 q 1910 1321 1871 1321 q 1826 1321 1789 1294 q 1752 1268 1726 1223 q 1701 1178 1690 1118 q 1678 1057 1684 989 z m 735 727 q 783 744 834 760 q 885 776 945 792 q 1005 809 1075 826 q 1145 844 1230 864 q 1178 925 1090 958 q 1001 990 885 990 q 839 990 798 985 q 756 980 723 969 q 718 940 715 915 q 712 890 712 867 q 712 799 735 727 z m 331 519 q 451 613 649 695 q 628 757 628 829 q 628 856 631 884 q 634 911 642 941 q 579 914 526 872 q 474 829 434 775 q 394 721 368 656 q 342 591 331 519 z m 327 378 q 338 261 388 164 q 438 68 520 0 q 602 -69 712 -106 q 822 -144 952 -144 q 1101 -144 1216 -93 q 1330 -42 1408 58 q 1485 157 1525 304 q 1565 452 1565 645 q 1565 698 1562 762 q 1559 825 1551 907 q 1484 888 1426 870 q 1367 853 1298 832 q 1323 781 1323 718 q 1323 655 1300 604 q 1278 553 1238 516 q 1197 479 1140 459 q 1083 439 1013 439 q 909 439 825 482 q 741 526 690 606 q 471 501 327 378 z m 773 645 q 821 566 894 523 q 967 480 1054 480 q 1108 480 1152 496 q 1195 513 1226 544 q 1256 574 1272 616 q 1288 659 1287 711 q 1286 769 1259 821 q 1113 774 994 731 q 875 688 773 645 z"},"}":{"x_min":0,"x_max":607,"ha":607,"o":"m 445 618 q 397 636 382 662 q 366 688 372 720 q 377 752 397 790 q 417 827 438 867 q 460 907 477 949 q 494 991 494 1033 q 494 1047 491 1062 q 488 1077 478 1091 q 468 1105 448 1116 q 429 1127 397 1132 q 378 1134 378 1150 q 379 1166 393 1174 q 425 1194 460 1204 q 495 1214 529 1214 q 558 1214 583 1207 q 608 1200 628 1185 q 647 1170 658 1148 q 669 1126 669 1096 q 669 1059 653 1020 q 637 980 613 940 q 589 900 561 862 q 533 823 510 788 q 486 754 472 725 q 457 696 459 675 q 461 654 484 642 q 508 631 560 632 q 581 633 591 622 q 601 611 594 598 q 588 584 562 572 q 535 561 482 561 q 421 561 387 544 q 353 526 338 496 q 322 466 320 426 q 319 387 322 342 q 326 297 330 250 q 333 203 328 158 q 324 113 306 74 q 289 34 250 4 q 210 -26 144 -44 q 78 -61 -23 -61 q -34 -63 -40 -56 q -47 -48 -44 -38 q -41 -29 -27 -21 q -13 -13 17 -13 q 63 -13 90 8 q 117 30 133 66 q 149 103 158 151 q 167 199 178 252 q 188 305 204 360 q 219 414 248 463 q 278 512 325 552 q 372 593 445 618 z"},"Z":{"x_min":0,"x_max":2175,"ha":2175,"o":"m 1161 3 q 1100 -56 1026 -102 q 952 -149 870 -182 q 789 -215 702 -232 q 616 -250 530 -250 q 405 -250 306 -212 q 208 -175 140 -104 q 72 -32 36 70 q 0 173 0 303 q 0 452 46 588 q 92 724 174 842 q 255 960 368 1056 q 481 1152 616 1220 q 750 1289 901 1326 q 1052 1363 1209 1363 q 1237 1363 1264 1362 q 1292 1360 1320 1358 q 1414 1350 1498 1330 q 1582 1310 1658 1285 q 1734 1260 1803 1232 q 1872 1204 1935 1180 q 1998 1157 2056 1140 q 2114 1124 2168 1121 q 2186 1120 2202 1121 q 2218 1122 2234 1126 q 2250 1144 2270 1160 q 2290 1176 2316 1176 q 2333 1176 2342 1166 q 2350 1155 2345 1134 q 2338 1101 2302 1076 q 2267 1051 2198 1031 q 2156 1001 2122 971 q 2089 941 2059 902 q 2029 863 1998 811 q 1968 759 1931 685 q 1970 671 2000 664 q 2030 658 2055 658 q 2087 658 2110 670 q 2133 682 2155 706 q 2172 709 2184 706 q 2197 704 2191 688 q 2138 632 2092 605 q 2045 578 1997 578 q 1948 578 1892 607 q 1856 532 1821 458 q 1786 383 1748 316 q 1710 248 1667 190 q 1624 132 1571 90 q 1714 12 1820 -26 q 1927 -63 2007 -63 q 2109 -63 2173 1 q 2193 7 2206 0 q 2219 -6 2219 -22 q 2192 -80 2162 -120 q 2133 -160 2102 -185 q 2070 -210 2037 -221 q 2004 -232 1970 -232 q 1912 -232 1852 -204 q 1792 -176 1734 -134 q 1675 -91 1620 -40 q 1566 10 1518 55 q 1408 -10 1263 -10 q 1199 -10 1161 3 z m 1586 667 q 1667 723 1758 723 q 1788 723 1819 717 q 1863 782 1900 830 q 1937 878 1973 916 q 2009 953 2048 984 q 2087 1014 2135 1044 q 2072 1043 2008 1056 q 1945 1069 1878 1090 q 1812 1111 1742 1138 q 1672 1164 1596 1189 q 1519 1214 1434 1235 q 1349 1256 1254 1266 q 1218 1270 1183 1272 q 1148 1274 1113 1274 q 974 1274 848 1244 q 722 1214 614 1158 q 506 1102 418 1021 q 331 940 270 838 q 208 736 175 614 q 142 492 142 354 q 142 222 172 120 q 203 18 260 -52 q 318 -123 400 -160 q 483 -196 587 -196 q 654 -196 722 -181 q 790 -166 855 -138 q 920 -109 981 -68 q 1042 -27 1095 26 q 1043 49 1014 83 q 984 117 984 154 q 984 199 1027 224 q 1070 249 1148 249 q 1174 249 1196 246 q 1219 244 1236 239 q 1257 298 1257 356 q 1257 457 1194 510 q 1132 564 1013 564 q 1007 462 968 370 q 930 277 870 206 q 811 136 736 94 q 661 53 581 53 q 507 53 469 90 q 431 127 431 198 q 431 253 452 308 q 474 362 512 412 q 551 463 602 508 q 654 552 714 585 q 774 618 840 638 q 905 657 971 659 q 965 711 946 756 q 928 802 900 836 q 873 870 840 890 q 806 909 771 909 q 745 909 722 898 q 698 886 681 866 q 669 875 664 894 q 659 912 665 931 q 671 950 690 964 q 710 979 747 979 q 795 979 839 953 q 883 927 918 883 q 954 839 978 781 q 1001 723 1007 658 q 1087 655 1150 634 q 1214 613 1258 577 q 1303 541 1326 491 q 1350 441 1350 379 q 1350 340 1340 299 q 1331 258 1314 217 q 1331 212 1352 203 q 1373 194 1402 180 q 1457 214 1505 266 q 1553 317 1599 380 q 1645 444 1690 516 q 1734 587 1782 661 q 1749 673 1720 673 q 1664 673 1608 633 q 1591 636 1584 646 q 1578 656 1586 667 z m 483 189 q 483 90 590 90 q 659 90 726 130 q 794 171 848 238 q 903 305 938 392 q 974 478 980 570 q 923 570 864 554 q 805 538 750 510 q 694 483 646 446 q 597 408 561 366 q 525 324 504 278 q 483 233 483 189 z m 1145 209 q 1095 209 1062 194 q 1028 179 1028 156 q 1028 140 1042 130 q 1056 121 1076 116 q 1095 112 1114 110 q 1134 109 1144 109 l 1159 110 l 1166 110 q 1203 161 1220 199 q 1180 209 1145 209 z m 1293 174 q 1286 159 1278 146 q 1271 134 1262 122 q 1283 127 1303 134 q 1323 140 1346 150 q 1335 155 1322 161 q 1309 167 1293 174 z"},"x":{"x_min":0,"x_max":506,"ha":506,"o":"m 329 528 q 350 534 366 534 q 395 534 412 518 q 428 502 428 474 q 428 440 404 410 q 381 380 348 356 q 314 332 276 314 q 238 296 209 285 q 218 257 230 232 q 242 207 258 188 q 275 170 297 160 q 319 149 347 149 q 426 149 473 236 l 516 226 q 470 148 403 102 q 336 57 261 57 q 189 57 140 98 q 92 140 64 211 q -15 147 17 57 q 7 45 -6 40 q -18 34 -32 34 q -48 34 -64 40 q -79 46 -92 57 q -104 68 -112 83 q -119 98 -119 116 q -119 151 -105 176 q -91 200 -68 218 q -44 236 -14 248 q 15 260 46 270 q 25 353 28 455 q 58 466 84 466 q 125 466 156 444 q 186 423 189 382 q 190 376 192 360 q 194 344 198 327 q 253 361 282 412 q 312 462 329 528 z"},")":{"x_min":0,"x_max":579,"ha":579,"o":"m 17 17 q 70 37 121 80 q 172 123 218 183 q 265 243 304 317 q 344 391 372 474 q 401 556 418 644 q 434 732 434 819 q 434 947 398 1042 q 363 1138 296 1195 q 351 1233 392 1233 q 435 1233 479 1195 q 532 1142 556 1066 q 579 989 579 884 q 579 778 556 673 q 534 568 494 472 q 454 375 398 290 q 342 204 275 136 q 208 68 132 21 q 57 -26 -23 -46 q -34 -48 -40 -42 q -47 -37 -44 -28 q -41 -18 -26 -6 q -12 6 17 17 z"},"&":{"x_min":0,"x_max":1018,"ha":1018,"o":"m 393 95 q 347 66 266 66 q 217 66 176 76 q 134 87 104 106 q 74 126 57 152 q 40 179 40 210 q 40 268 96 312 q 151 356 247 373 q 214 402 196 438 q 179 475 179 513 q 179 554 198 588 q 218 622 252 647 q 286 672 334 686 q 381 700 436 700 q 486 700 527 689 q 568 678 598 658 q 628 637 644 609 q 661 581 661 548 q 661 517 646 488 q 632 460 606 437 q 580 414 543 398 q 506 382 462 375 q 498 336 542 301 q 587 266 632 240 q 725 313 825 313 q 894 313 936 280 q 978 247 978 194 q 978 135 926 100 q 873 64 782 64 q 728 64 676 78 q 623 91 580 117 q 568 94 565 67 q 562 40 566 14 q 570 -11 581 -32 q 592 -52 609 -62 q 604 -92 582 -110 q 560 -127 536 -127 q 515 -127 498 -113 q 480 -99 475 -67 q 468 -26 486 30 q 503 86 540 139 q 515 155 488 174 q 460 194 428 218 q 397 243 360 274 q 323 304 278 342 q 201 300 201 220 q 201 169 230 136 q 259 103 304 103 q 322 103 340 108 q 359 114 374 125 q 385 128 390 120 q 396 112 393 95 z m 437 405 q 487 426 513 462 q 539 497 539 543 q 539 570 530 593 q 521 616 505 632 q 489 649 467 658 q 445 667 419 667 q 376 667 350 644 q 324 620 324 582 q 324 542 353 496 q 382 451 437 405 z m 664 215 q 716 185 772 168 q 828 151 875 151 q 907 151 921 160 q 935 170 935 192 q 935 229 904 252 q 872 275 821 275 q 741 275 664 215 z"},"_":{"x_min":0,"x_max":473,"ha":473,"o":"m 95 86 l 399 85 q 402 69 400 54 q 397 38 388 26 q 380 14 366 7 q 353 0 334 0 l 30 0 q 27 17 30 33 q 33 49 42 61 q 50 73 64 80 q 77 86 95 86 z"},"v":{"x_min":0,"x_max":560,"ha":560,"o":"m 147 133 q 173 133 204 164 q 234 196 261 244 q 288 293 307 350 q 326 408 328 460 q 356 460 382 453 q 409 446 430 435 q 451 424 465 410 q 479 396 480 381 q 462 317 424 261 q 385 205 334 164 q 284 122 225 98 q 166 74 107 74 q 38 74 0 105 q -39 136 -39 190 q -39 214 -32 242 q -24 271 -12 304 q 0 337 14 375 q 29 413 44 455 q 71 455 96 448 q 120 442 140 431 q 159 420 171 406 q 183 392 184 377 q 174 357 163 331 q 152 305 142 278 q 133 251 126 225 q 120 199 120 178 q 119 158 125 146 q 131 133 147 133 z"},"O":{"x_min":0,"x_max":1998,"ha":1998,"o":"m 843 147 q 790 131 734 122 q 677 114 616 114 q 484 114 372 154 q 259 194 176 264 q 94 335 47 432 q 0 528 0 641 q 0 762 54 870 q 108 979 208 1060 q 263 1105 326 1136 q 390 1168 457 1190 q 524 1212 592 1226 q 661 1240 728 1250 q 794 1259 856 1266 q 917 1273 970 1280 q 961 1309 961 1336 q 961 1370 974 1395 q 987 1420 1008 1437 q 1028 1454 1054 1462 q 1079 1471 1105 1471 q 1128 1471 1148 1465 q 1169 1459 1185 1447 q 1201 1435 1210 1417 q 1220 1399 1220 1375 q 1220 1328 1182 1300 q 1143 1273 1078 1256 q 1106 1196 1163 1140 q 1220 1085 1294 1042 q 1369 1085 1450 1108 q 1530 1132 1613 1132 q 1715 1132 1786 1097 q 1857 1062 1900 1002 q 1943 942 1960 862 q 1976 782 1969 692 q 1962 602 1932 506 q 1903 411 1854 321 q 1806 231 1739 151 q 1672 71 1590 11 q 1508 -49 1412 -84 q 1316 -119 1209 -119 q 1062 -119 968 -51 q 875 17 843 147 z m 1063 1297 q 1115 1309 1145 1328 q 1175 1348 1175 1380 q 1175 1406 1158 1421 q 1140 1436 1119 1436 q 1095 1436 1075 1416 q 1055 1397 1055 1352 q 1055 1326 1063 1297 z m 828 281 q 828 361 846 440 q 864 520 897 596 q 930 671 976 741 q 1022 811 1078 871 q 1028 909 961 929 q 894 949 811 949 q 718 949 638 924 q 558 898 500 854 q 441 809 408 748 q 374 688 374 617 q 374 536 416 488 q 459 441 532 441 q 575 441 607 454 q 639 467 660 487 q 681 507 692 531 q 702 555 702 578 q 702 606 687 626 q 672 647 642 652 q 642 671 660 684 q 677 696 699 696 q 730 696 746 672 q 762 648 762 612 q 762 579 748 542 q 733 505 703 474 q 673 442 627 421 q 581 400 517 400 q 465 400 422 416 q 380 433 350 464 q 319 494 302 536 q 285 578 285 629 q 285 710 326 782 q 367 854 436 909 q 505 964 597 996 q 689 1028 791 1028 q 891 1028 974 997 q 1057 966 1117 910 q 1173 964 1239 1009 q 1153 1055 1087 1114 q 1021 1173 988 1236 q 910 1221 818 1206 q 727 1191 634 1166 q 541 1140 453 1098 q 365 1057 295 989 q 218 914 176 818 q 135 721 135 616 q 135 516 174 431 q 212 346 280 284 q 349 223 444 188 q 538 154 650 154 q 698 154 745 160 q 792 167 836 181 q 832 204 830 228 q 828 253 828 281 z m 1414 987 q 1465 969 1520 958 q 1574 948 1636 948 q 1705 948 1742 962 q 1780 976 1780 1005 q 1780 1020 1770 1032 q 1760 1045 1742 1054 q 1725 1063 1702 1068 q 1678 1073 1650 1073 q 1591 1073 1532 1050 q 1472 1028 1414 987 z m 1829 987 q 1810 950 1752 929 q 1695 908 1614 908 q 1553 908 1491 920 q 1429 932 1369 952 q 1325 916 1285 871 q 1245 826 1209 775 q 1238 703 1238 622 q 1238 501 1179 400 q 1120 299 1018 230 q 1018 169 1030 114 q 1041 60 1068 19 q 1096 -22 1142 -46 q 1187 -70 1255 -70 q 1334 -70 1411 -38 q 1488 -6 1558 50 q 1627 105 1686 178 q 1746 252 1792 336 q 1837 420 1866 510 q 1895 599 1902 684 q 1909 770 1892 848 q 1875 926 1829 987 z m 1020 275 q 1102 339 1150 427 q 1197 515 1197 618 q 1197 680 1179 731 q 1113 627 1070 510 q 1028 392 1020 275 z"},"(":{"x_min":0,"x_max":589,"ha":589,"o":"m 612 1193 q 550 1169 492 1122 q 433 1074 382 1010 q 331 945 288 867 q 246 789 216 704 q 185 620 168 533 q 152 446 152 364 q 152 252 185 158 q 218 63 293 0 q 240 -38 197 -38 q 156 -38 110 0 q 52 58 26 138 q 0 217 0 310 q 0 402 24 502 q 47 601 88 698 q 130 794 187 884 q 244 974 312 1046 q 380 1119 456 1170 q 533 1221 612 1241 q 623 1243 630 1238 q 637 1232 638 1224 q 638 1216 632 1208 q 626 1199 612 1193 z"},"C":{"x_min":0,"x_max":1666,"ha":1666,"o":"m 1266 3 q 1316 3 1370 21 q 1425 39 1476 70 q 1526 102 1570 144 q 1613 187 1642 236 l 1685 226 q 1648 165 1596 114 q 1545 64 1484 28 q 1424 -8 1358 -28 q 1291 -47 1224 -47 q 1166 -47 1114 -32 q 1063 -18 1020 10 q 977 37 944 76 q 910 114 888 162 q 827 139 759 126 q 691 114 618 114 q 485 114 372 154 q 259 194 176 264 q 94 335 47 432 q 0 528 0 641 q 0 762 54 870 q 108 979 208 1060 q 263 1105 326 1136 q 390 1168 457 1190 q 524 1212 592 1226 q 661 1241 728 1250 q 794 1260 856 1267 q 917 1274 970 1281 q 961 1310 961 1336 q 961 1370 974 1395 q 987 1420 1008 1437 q 1028 1454 1054 1462 q 1079 1471 1105 1471 q 1128 1471 1148 1465 q 1169 1459 1185 1447 q 1201 1435 1210 1417 q 1220 1399 1220 1375 q 1220 1328 1182 1300 q 1144 1273 1080 1256 q 1110 1196 1170 1140 q 1229 1085 1307 1042 q 1389 1085 1478 1108 q 1567 1132 1650 1132 q 1703 1132 1742 1122 q 1781 1113 1807 1098 q 1833 1082 1846 1062 q 1858 1043 1858 1022 q 1858 1001 1844 980 q 1831 960 1804 944 q 1776 928 1734 918 q 1692 908 1634 908 q 1569 908 1503 920 q 1437 933 1372 956 q 1326 919 1284 875 q 1243 831 1207 780 q 1238 706 1238 622 q 1238 510 1186 414 q 1135 319 1045 250 q 1056 133 1113 68 q 1170 3 1266 3 z m 1063 1297 q 1115 1309 1145 1328 q 1175 1348 1175 1380 q 1175 1406 1158 1421 q 1140 1436 1119 1436 q 1095 1436 1075 1416 q 1055 1397 1055 1352 q 1055 1326 1063 1297 z m 875 195 q 849 265 849 350 q 849 418 865 488 q 881 557 911 624 q 941 690 984 753 q 1026 816 1079 871 q 1029 909 962 929 q 894 949 811 949 q 718 949 638 924 q 558 898 500 854 q 441 809 408 748 q 374 688 374 617 q 374 536 416 488 q 459 441 532 441 q 555 441 584 448 q 614 456 640 470 q 666 484 684 506 q 701 528 701 556 q 701 582 686 606 q 670 630 646 645 q 646 666 664 684 q 682 701 705 701 q 727 701 741 684 q 755 666 760 639 q 764 612 759 579 q 754 546 737 516 q 708 462 648 431 q 589 400 517 400 q 465 400 422 416 q 380 433 350 464 q 319 494 302 536 q 285 578 285 629 q 285 710 326 782 q 367 854 436 909 q 506 964 598 996 q 690 1028 792 1028 q 892 1028 975 997 q 1058 966 1118 909 q 1149 937 1182 962 q 1215 987 1250 1009 q 1162 1055 1094 1114 q 1025 1173 990 1236 q 912 1221 820 1206 q 729 1192 636 1166 q 542 1141 454 1099 q 366 1057 295 989 q 218 914 176 818 q 135 721 135 616 q 135 516 174 431 q 212 346 280 284 q 348 223 442 188 q 536 154 647 154 q 709 154 766 164 q 823 175 875 195 z m 1419 991 q 1475 971 1532 960 q 1589 948 1646 948 q 1687 948 1716 954 q 1746 959 1764 968 q 1783 978 1792 990 q 1800 1002 1800 1015 q 1800 1041 1768 1062 q 1735 1083 1675 1083 q 1615 1083 1549 1059 q 1483 1035 1419 991 z m 1043 294 q 1115 357 1156 440 q 1197 523 1197 620 q 1197 683 1178 736 q 1115 636 1079 524 q 1043 413 1043 294 z"},"W":{"x_min":0,"x_max":2637,"ha":2637,"o":"m 951 658 q 1113 658 1200 587 q 1288 516 1288 385 q 1288 304 1254 224 q 1221 144 1162 72 q 1103 -1 1022 -63 q 941 -125 846 -170 q 752 -215 648 -240 q 543 -266 436 -266 q 334 -266 253 -242 q 172 -218 116 -172 q 60 -127 30 -62 q 0 4 0 87 q 0 169 30 251 q 59 333 113 411 q 167 489 245 560 q 323 632 419 694 q 515 756 628 806 q 742 857 868 891 q 859 916 844 948 q 830 979 810 1012 q 791 1044 766 1074 q 741 1105 709 1129 q 677 1153 638 1168 q 600 1182 555 1182 q 507 1182 463 1153 q 453 1173 456 1192 q 458 1210 470 1224 q 481 1238 501 1247 q 521 1256 547 1256 q 597 1256 640 1236 q 682 1217 718 1186 q 755 1155 784 1116 q 814 1077 837 1038 q 860 998 876 962 q 891 926 900 902 q 982 930 1074 960 q 1166 991 1260 1026 q 1353 1062 1442 1104 q 1532 1145 1609 1195 q 1629 1212 1655 1232 q 1681 1253 1710 1271 q 1739 1289 1768 1302 q 1798 1314 1825 1314 q 1855 1314 1870 1300 q 1885 1285 1886 1265 q 1887 1245 1874 1224 q 1861 1204 1833 1192 q 1833 1219 1820 1236 q 1808 1253 1785 1253 q 1768 1253 1747 1243 q 1726 1233 1700 1210 q 1652 1167 1632 1118 q 1612 1069 1610 1014 q 1609 959 1621 898 q 1633 837 1649 770 q 1665 704 1680 632 q 1695 561 1700 485 q 1704 409 1693 328 q 1682 247 1645 162 q 1716 259 1779 360 q 1842 462 1898 561 q 1955 660 2007 752 q 2059 845 2109 924 q 2159 1003 2208 1064 q 2257 1125 2307 1161 q 2337 1167 2338 1136 q 2302 1084 2288 1016 q 2274 947 2276 872 q 2277 798 2290 722 q 2302 647 2318 581 q 2335 515 2352 463 q 2368 411 2377 384 q 2427 497 2474 608 q 2522 719 2574 818 q 2625 916 2683 996 q 2741 1076 2812 1126 q 2863 1162 2920 1182 q 2977 1201 3028 1201 q 3076 1201 3097 1186 q 3118 1172 3122 1154 q 3125 1136 3116 1122 q 3106 1107 3093 1107 q 3084 1107 3070 1114 q 3055 1121 3037 1129 q 3019 1137 2999 1143 q 2979 1149 2959 1147 q 2932 1144 2893 1124 q 2854 1104 2819 1074 q 2771 1033 2726 971 q 2682 909 2640 833 q 2597 757 2557 672 q 2517 587 2478 500 q 2438 414 2400 330 q 2361 247 2323 175 q 2306 140 2284 105 q 2261 70 2232 33 q 2203 32 2204 61 q 2236 117 2238 176 q 2239 234 2224 296 q 2208 357 2182 422 q 2157 486 2136 554 q 2114 622 2103 694 q 2092 765 2105 839 q 2065 772 2022 695 q 1980 618 1934 537 q 1888 456 1838 374 q 1788 291 1734 212 q 1679 134 1619 62 q 1559 -10 1493 -70 q 1464 -71 1465 -42 q 1508 48 1522 131 q 1536 214 1532 292 q 1529 369 1512 441 q 1496 513 1478 582 q 1460 650 1446 716 q 1431 781 1430 845 q 1430 909 1450 972 q 1469 1036 1518 1100 q 1400 1037 1247 972 q 1094 908 918 848 q 945 755 951 658 z m 951 564 q 945 462 906 370 q 868 277 808 206 q 749 136 674 94 q 599 53 519 53 q 445 53 407 90 q 369 127 369 198 q 369 253 392 308 q 414 364 452 415 q 491 466 544 510 q 597 555 658 588 q 719 621 786 640 q 852 659 918 659 q 912 739 886 837 q 785 807 692 760 q 599 714 519 655 q 439 596 374 528 q 308 459 262 385 q 215 311 190 234 q 164 157 164 82 q 164 13 186 -42 q 208 -96 250 -134 q 292 -171 352 -191 q 413 -211 490 -211 q 575 -211 660 -188 q 746 -165 824 -124 q 902 -84 970 -30 q 1038 25 1088 88 q 1138 151 1166 220 q 1195 289 1195 357 q 1195 458 1132 511 q 1069 564 951 564 z m 421 189 q 421 90 528 90 q 597 90 664 130 q 732 171 786 238 q 841 305 876 392 q 912 478 918 570 q 861 570 802 554 q 743 538 688 510 q 632 483 584 446 q 535 408 499 366 q 463 324 442 278 q 421 233 421 189 z"},"A":{"x_min":0,"x_max":2110,"ha":2110,"o":"m 0 567 q 0 667 38 767 q 76 867 152 948 q 229 1028 344 1078 q 458 1128 612 1128 q 732 1128 830 1096 q 929 1064 1000 1005 q 1071 946 1112 864 q 1153 782 1158 681 q 1227 648 1289 607 q 1351 566 1409 526 q 1491 609 1573 690 q 1655 772 1736 844 q 1818 916 1899 974 q 1980 1032 2060 1068 q 1986 1050 1909 1026 q 1832 1003 1758 981 q 1683 959 1612 944 q 1542 929 1481 929 q 1420 929 1370 946 q 1319 962 1282 992 q 1246 1022 1226 1064 q 1206 1105 1206 1155 q 1206 1196 1220 1231 q 1233 1266 1256 1292 q 1280 1317 1312 1332 q 1345 1346 1383 1346 q 1416 1346 1446 1335 q 1475 1324 1497 1304 q 1519 1285 1532 1260 q 1544 1234 1544 1205 q 1544 1181 1535 1160 q 1526 1139 1511 1124 q 1496 1109 1476 1102 q 1455 1094 1432 1095 q 1400 1095 1376 1112 q 1351 1129 1351 1158 q 1351 1179 1365 1194 q 1379 1209 1399 1209 q 1407 1186 1421 1168 q 1435 1150 1462 1150 q 1482 1150 1493 1168 q 1504 1185 1504 1207 q 1504 1227 1494 1245 q 1485 1263 1468 1276 q 1452 1290 1430 1298 q 1408 1306 1383 1306 q 1354 1306 1329 1295 q 1304 1284 1286 1264 q 1267 1245 1256 1218 q 1246 1192 1246 1161 q 1246 1089 1304 1049 q 1362 1009 1469 1009 q 1534 1009 1617 1022 q 1700 1036 1790 1054 q 1880 1071 1970 1088 q 2061 1105 2141 1112 q 2162 1114 2204 1118 q 2247 1121 2295 1121 q 2325 1121 2354 1118 q 2382 1116 2404 1110 q 2427 1104 2440 1094 q 2454 1083 2454 1066 q 2454 1051 2441 1038 q 2428 1024 2399 1024 q 2398 1046 2390 1061 q 2382 1076 2368 1085 q 2326 1039 2274 972 q 2221 904 2167 825 q 2113 746 2062 661 q 2010 576 1970 494 q 1930 413 1906 340 q 1881 267 1881 212 q 1881 133 1940 133 q 1976 133 2012 160 q 2049 188 2077 236 l 2120 226 q 2070 139 2004 95 q 1937 51 1857 51 q 1782 51 1742 89 q 1701 127 1701 196 q 1701 229 1710 268 q 1720 307 1737 352 q 1720 347 1704 346 q 1688 344 1674 344 q 1623 344 1573 362 q 1523 379 1472 406 q 1382 299 1288 198 q 1194 98 1092 20 q 990 -57 879 -104 q 768 -150 645 -150 q 569 -150 504 -131 q 440 -112 392 -78 q 344 -43 315 6 q 286 55 281 115 q 280 139 281 161 q 212 180 159 220 q 106 260 71 314 q 36 368 18 433 q 0 498 0 567 z m 329 151 q 329 99 346 62 q 364 24 394 -1 q 425 -26 466 -38 q 508 -50 557 -50 q 656 -50 756 -6 q 855 38 955 110 q 1055 183 1156 278 q 1256 372 1356 473 q 1308 502 1258 530 q 1208 559 1154 583 q 1144 511 1114 450 q 1084 389 1039 346 q 994 302 936 278 q 877 253 809 253 q 754 253 708 270 q 661 286 628 316 q 594 347 576 390 q 557 433 557 486 q 557 545 580 594 q 602 642 644 676 q 686 711 746 730 q 806 750 881 750 q 945 750 1004 736 q 1062 723 1116 700 q 1106 784 1066 854 q 1027 924 964 974 q 901 1024 818 1052 q 735 1080 637 1080 q 508 1080 415 1034 q 322 988 262 914 q 202 840 174 748 q 145 657 145 565 q 145 510 155 458 q 165 407 184 362 q 202 317 230 281 q 257 245 293 222 q 313 282 357 319 q 401 356 461 356 q 488 356 511 348 q 534 339 550 324 q 565 309 572 289 q 580 269 576 246 q 568 199 521 172 q 474 146 398 146 q 381 146 364 148 q 346 149 329 151 z m 1514 456 q 1564 427 1610 408 q 1657 390 1703 390 q 1730 390 1755 396 q 1779 451 1811 512 q 1843 572 1882 634 q 1920 696 1963 757 q 2006 818 2052 876 q 2097 933 2144 984 q 2190 1035 2235 1076 q 2172 1070 2112 1042 q 2051 1015 1991 970 q 1931 926 1872 868 q 1813 810 1754 744 q 1695 677 1635 604 q 1575 530 1514 456 z m 891 645 q 768 645 700 594 q 633 543 633 458 q 633 420 647 390 q 661 359 686 338 q 710 316 744 304 q 779 293 821 293 q 880 293 931 316 q 982 339 1021 380 q 1060 421 1085 477 q 1110 533 1117 599 q 1064 620 1008 632 q 951 645 891 645 z m 461 316 q 413 316 380 284 q 347 251 335 200 q 372 186 414 186 q 463 186 497 205 q 531 224 536 254 q 541 281 518 298 q 496 316 461 316 z"},"f":{"x_min":0,"x_max":316,"ha":316,"o":"m 45 33 q 34 6 10 -10 q -15 -25 -61 -25 q -92 -25 -130 -18 l 11 390 l -30 390 q -31 396 -28 405 q -26 414 -21 422 q -16 431 -9 438 q -2 444 6 444 l 30 444 l 68 553 q 77 579 94 601 q 112 623 134 639 q 157 655 184 664 q 210 673 238 673 q 265 673 289 665 q 313 657 331 644 q 349 631 360 614 q 370 598 370 581 q 370 556 351 543 q 332 530 309 530 q 282 530 265 548 q 274 564 278 580 q 283 595 283 608 q 283 620 278 628 q 273 635 261 635 q 243 635 228 611 q 213 587 194 527 q 188 510 182 489 q 175 468 167 444 l 285 444 q 286 438 284 429 q 281 420 276 412 q 271 403 264 396 q 257 390 249 390 l 151 390 q 135 337 119 280 q 103 224 88 174 q 74 124 62 86 q 51 48 45 33 z"},"Q":{"x_min":0,"x_max":2090,"ha":2090,"o":"m 1251 -118 q 1169 -120 1122 -92 q 1076 -65 1076 -15 q 1076 26 1106 52 q 1136 79 1181 79 q 1236 79 1272 38 q 1307 -2 1315 -73 q 1392 -60 1466 -22 q 1540 17 1606 76 q 1672 134 1727 208 q 1782 283 1822 368 q 1863 452 1886 543 q 1908 634 1908 725 q 1908 805 1890 871 q 1873 937 1840 984 q 1808 1030 1763 1056 q 1718 1081 1662 1081 q 1610 1081 1550 1058 q 1490 1036 1430 996 q 1370 955 1313 899 q 1256 843 1209 775 q 1238 705 1238 622 q 1238 514 1190 422 q 1142 329 1058 260 q 975 192 862 153 q 748 114 617 114 q 485 114 372 154 q 259 194 176 264 q 94 335 47 432 q 0 528 0 641 q 0 762 54 870 q 108 979 208 1060 q 263 1105 326 1136 q 390 1168 457 1190 q 524 1212 592 1226 q 661 1240 728 1250 q 794 1259 856 1266 q 917 1273 970 1280 q 958 1319 962 1354 q 967 1388 985 1414 q 1003 1440 1034 1456 q 1064 1471 1103 1471 q 1156 1471 1188 1444 q 1220 1418 1220 1375 q 1220 1333 1186 1304 q 1152 1276 1078 1256 q 1119 1181 1213 1143 q 1307 1105 1445 1107 q 1527 1132 1622 1132 q 1728 1132 1812 1104 q 1896 1075 1954 1021 q 2013 967 2044 890 q 2075 812 2075 714 q 2075 620 2047 527 q 2019 434 1968 348 q 1918 262 1848 186 q 1777 110 1692 50 q 1608 -11 1512 -52 q 1416 -94 1314 -110 q 1310 -176 1288 -238 q 1267 -301 1230 -352 q 1305 -398 1388 -422 q 1470 -445 1559 -445 q 1664 -445 1764 -412 q 1864 -380 1951 -322 q 2038 -263 2108 -181 q 2177 -99 2222 0 q 2235 11 2245 11 q 2255 11 2268 0 q 2211 -137 2134 -246 q 2057 -356 1968 -432 q 1879 -509 1782 -550 q 1685 -591 1587 -591 q 1383 -591 1179 -413 q 1106 -486 1004 -526 q 902 -565 785 -565 q 685 -565 598 -536 q 511 -507 447 -457 q 383 -407 346 -338 q 310 -270 310 -192 q 310 -140 327 -96 q 344 -52 375 -19 q 406 14 450 34 q 495 54 550 59 q 614 62 670 48 q 726 33 777 6 q 828 -22 875 -58 q 922 -95 968 -136 q 1015 -177 1062 -220 q 1108 -262 1158 -301 q 1199 -258 1221 -214 q 1243 -170 1251 -118 z m 1063 1297 q 1121 1311 1148 1330 q 1175 1350 1175 1379 q 1175 1403 1159 1420 q 1143 1436 1119 1436 q 1100 1436 1086 1425 q 1072 1414 1064 1395 q 1057 1376 1056 1351 q 1056 1326 1063 1297 z m 949 229 q 881 231 856 298 q 831 364 856 477 q 879 580 935 682 q 991 783 1076 873 q 1025 911 958 930 q 892 949 812 949 q 718 949 638 924 q 558 898 500 854 q 441 809 408 748 q 374 688 374 617 q 374 536 416 488 q 459 441 532 441 q 562 441 593 450 q 624 459 650 476 q 676 494 692 520 q 709 546 709 579 q 709 606 696 629 q 683 652 657 660 q 657 685 672 700 q 686 715 704 715 q 725 715 744 692 q 762 669 762 616 q 762 566 742 526 q 722 486 688 458 q 654 430 610 415 q 565 400 517 400 q 465 400 422 416 q 380 433 350 464 q 319 494 302 536 q 285 578 285 629 q 285 710 326 782 q 367 854 436 909 q 505 964 597 996 q 689 1028 791 1028 q 888 1028 971 998 q 1054 968 1115 911 q 1166 959 1226 1000 q 1285 1040 1351 1072 q 1219 1081 1128 1122 q 1036 1164 988 1236 q 910 1221 818 1206 q 727 1191 634 1166 q 541 1140 453 1098 q 365 1057 295 989 q 218 914 176 818 q 135 721 135 616 q 135 516 174 431 q 212 346 280 284 q 348 223 442 188 q 537 154 648 154 q 730 154 806 173 q 883 192 949 229 z m 1179 731 q 1110 622 1069 504 q 1028 387 1020 275 q 1105 341 1151 430 q 1197 519 1197 619 q 1197 680 1179 731 z m 1255 -80 q 1255 -26 1238 8 q 1221 42 1192 42 q 1171 42 1154 24 q 1138 7 1138 -16 q 1138 -45 1170 -62 q 1201 -80 1255 -80 z m 548 17 q 504 11 468 -7 q 431 -25 405 -53 q 379 -81 364 -118 q 350 -154 350 -196 q 350 -255 378 -305 q 406 -355 456 -391 q 507 -427 576 -447 q 645 -467 727 -467 q 829 -467 926 -436 q 1023 -405 1104 -347 q 1034 -281 968 -212 q 901 -143 834 -89 q 766 -35 696 -4 q 626 27 548 17 z"},"w":{"x_min":0,"x_max":787,"ha":787,"o":"m 404 133 q 430 133 456 164 q 481 196 502 244 q 524 293 538 350 q 553 408 555 460 q 583 460 610 453 q 636 446 657 435 q 678 424 692 410 q 706 396 707 381 q 689 317 656 261 q 622 205 577 164 q 532 122 478 98 q 423 74 364 74 q 311 74 276 93 q 240 112 226 146 q 203 114 171 94 q 139 74 88 74 q 25 74 -7 105 q -39 136 -39 186 q -39 211 -32 240 q -24 270 -12 304 q 0 337 14 375 q 29 413 44 455 q 71 455 96 448 q 120 442 140 431 q 159 420 171 406 q 183 392 184 377 q 169 347 152 305 q 135 263 126 225 q 116 187 117 160 q 118 133 139 133 q 165 133 188 174 q 211 215 237 281 q 249 318 266 362 q 284 405 301 455 q 328 455 352 448 q 377 442 396 431 q 416 420 428 406 q 440 392 441 377 q 431 357 420 331 q 409 305 400 278 q 390 251 384 225 q 377 199 376 178 q 376 158 382 146 q 388 133 404 133 z"},"-":{"x_min":0,"x_max":453,"ha":453,"o":"m 107 399 l 411 398 q 414 382 412 366 q 409 351 400 339 q 392 327 378 320 q 365 313 346 313 l 42 313 q 39 330 42 346 q 45 362 54 374 q 62 386 76 392 q 89 399 107 399 z"},"E":{"x_min":0,"x_max":1675,"ha":1675,"o":"m 1362 675 q 1297 673 1238 634 l 1238 626 q 1238 510 1186 414 q 1135 318 1044 249 q 1044 194 1057 146 q 1070 97 1097 61 q 1124 25 1167 4 q 1210 -17 1270 -17 q 1323 -17 1374 0 q 1426 18 1474 51 q 1522 84 1565 131 q 1608 178 1642 236 l 1685 226 q 1597 81 1478 7 q 1360 -67 1211 -67 q 1144 -67 1087 -52 q 1030 -37 986 -8 q 941 20 910 61 q 879 102 864 154 q 749 114 618 114 q 485 114 372 154 q 259 194 176 264 q 94 335 47 432 q 0 528 0 641 q 0 762 54 870 q 108 979 208 1060 q 263 1105 326 1136 q 390 1168 457 1190 q 524 1212 593 1226 q 662 1241 728 1251 q 794 1261 856 1268 q 918 1275 971 1283 q 969 1295 968 1306 q 967 1318 967 1329 q 967 1372 979 1402 q 991 1433 1010 1452 q 1029 1472 1053 1481 q 1077 1490 1102 1490 q 1125 1490 1146 1483 q 1167 1476 1184 1462 q 1200 1449 1210 1430 q 1220 1410 1220 1385 q 1220 1336 1182 1308 q 1143 1279 1078 1260 q 1097 1177 1157 1109 q 1217 1041 1309 996 q 1333 1030 1368 1059 q 1403 1088 1446 1109 q 1488 1130 1538 1142 q 1587 1154 1639 1154 q 1686 1154 1725 1144 q 1764 1134 1792 1116 q 1821 1099 1837 1075 q 1853 1051 1853 1022 q 1853 992 1836 968 q 1818 943 1786 925 q 1753 907 1707 898 q 1661 888 1604 888 q 1559 888 1510 894 q 1461 900 1413 912 q 1388 857 1388 796 q 1388 742 1409 700 q 1464 695 1480 668 q 1496 640 1464 605 q 1455 605 1442 610 q 1429 616 1415 626 q 1401 635 1387 648 q 1373 661 1362 675 z m 1072 1302 q 1120 1315 1148 1336 q 1175 1356 1175 1389 q 1175 1413 1162 1426 q 1150 1440 1133 1440 q 1122 1440 1111 1434 q 1100 1427 1091 1414 q 1082 1400 1076 1378 q 1071 1357 1071 1326 q 1071 1320 1071 1314 q 1071 1308 1072 1302 z m 857 188 q 855 202 854 218 q 852 233 852 250 q 852 323 878 391 q 903 459 948 516 q 994 572 1056 614 q 1119 657 1192 679 q 1182 742 1151 792 q 1120 842 1071 877 q 1022 912 956 930 q 891 949 812 949 q 718 949 638 924 q 558 898 500 854 q 441 809 408 748 q 374 688 374 617 q 374 536 416 488 q 459 441 533 441 q 557 441 586 448 q 615 455 640 470 q 665 484 682 506 q 699 527 699 556 q 699 585 683 610 q 667 636 646 645 q 646 666 664 684 q 682 701 705 701 q 732 701 747 675 q 762 649 762 611 q 762 562 741 523 q 720 484 686 456 q 651 429 607 414 q 563 400 517 400 q 466 400 423 416 q 380 433 350 463 q 319 493 302 536 q 285 578 285 629 q 285 709 326 782 q 366 854 436 909 q 505 964 597 996 q 689 1028 791 1028 q 880 1028 956 1004 q 1031 979 1088 934 q 1146 889 1184 826 q 1221 764 1233 689 q 1286 701 1340 701 q 1268 787 1268 872 q 1268 915 1286 954 q 1231 978 1182 1008 q 1133 1039 1094 1075 q 1055 1111 1026 1152 q 998 1193 983 1237 q 905 1222 814 1206 q 723 1191 631 1165 q 539 1139 452 1098 q 365 1057 295 989 q 218 914 176 818 q 135 721 135 616 q 135 516 174 431 q 212 346 280 284 q 348 223 442 188 q 537 154 648 154 q 704 154 756 162 q 809 171 857 188 z m 1435 951 q 1480 940 1526 934 q 1572 928 1617 928 q 1705 928 1750 950 q 1795 972 1795 1012 q 1795 1045 1765 1064 q 1735 1082 1681 1082 q 1603 1082 1538 1046 q 1474 1011 1435 951 z m 1047 298 q 1114 358 1154 436 q 1193 513 1197 602 q 1139 549 1098 469 q 1058 389 1047 298 z"},"s":{"x_min":0,"x_max":431,"ha":431,"o":"m 71 460 l 259 460 q 252 453 247 438 q 242 424 242 412 q 242 391 256 372 q 270 353 286 332 q 303 310 317 284 q 331 259 331 226 q 331 191 314 160 q 296 128 267 104 q 238 80 199 66 q 160 52 116 52 q 80 52 50 62 q 19 71 -4 88 q -27 105 -40 128 q -52 151 -52 178 q -52 195 -45 216 q -22 252 8 317 q 39 382 71 460 z m 192 191 q 189 214 177 233 q 165 252 148 272 q 132 291 114 314 q 95 336 79 366 q 64 331 54 310 q 43 288 35 272 q 59 272 74 260 q 88 247 85 228 q 67 212 62 190 q 58 168 64 148 q 70 128 86 114 q 101 100 123 100 q 139 100 152 107 q 166 114 176 126 q 186 139 190 156 q 195 172 192 191 z"},">":{"x_min":0,"x_max":419,"ha":419,"o":"m 344 263 l 63 127 q 50 141 44 160 q 39 180 40 200 q 42 219 51 234 q 60 249 75 253 l 312 319 l 155 385 q 140 393 132 409 q 124 425 122 443 q 120 461 126 480 q 131 498 143 512 l 344 375 q 361 363 370 348 q 378 332 378 316 q 378 300 370 286 q 361 271 344 263 z"},"l":{"x_min":0,"x_max":398,"ha":398,"o":"m 365 236 l 408 226 q 388 190 358 160 q 329 131 294 110 q 259 89 220 77 q 182 65 144 65 q 59 65 10 121 q -39 177 -39 274 q -39 325 -25 376 q -11 427 14 474 q 38 522 71 563 q 104 604 142 634 q 180 665 222 682 q 263 700 304 700 q 350 700 374 678 q 399 656 399 615 q 399 578 378 534 q 358 489 320 441 q 281 393 226 342 q 172 292 104 244 q 99 187 120 151 q 142 115 183 115 q 204 115 230 126 q 257 136 283 153 q 309 170 331 192 q 353 213 365 236 z m 108 290 q 161 336 206 384 q 252 431 286 474 q 319 516 338 551 q 357 586 357 608 q 357 625 347 636 q 337 647 323 647 q 299 647 267 614 q 235 580 204 528 q 172 475 146 412 q 120 349 108 290 z"},"8":{"x_min":0,"x_max":539,"ha":539,"o":"m 332 700 q 372 700 406 690 q 440 680 464 662 q 489 644 502 618 q 516 593 516 562 q 516 509 477 466 q 438 422 366 399 q 426 371 459 336 q 492 301 492 254 q 492 217 471 185 q 450 153 413 129 q 376 105 326 92 q 276 78 218 78 q 119 78 62 116 q 4 154 4 219 q 4 248 16 274 q 28 299 49 318 q 70 338 99 351 q 128 364 162 370 q 117 402 96 432 q 75 462 75 500 q 75 539 96 576 q 116 612 151 640 q 186 667 233 684 q 280 700 332 700 z m 322 420 q 384 437 416 472 q 449 508 449 555 q 449 579 440 600 q 431 620 416 635 q 400 650 379 658 q 358 667 334 667 q 309 667 287 658 q 265 649 249 634 q 233 619 224 600 q 215 580 215 558 q 215 521 242 486 q 270 452 322 420 z m 199 347 q 153 322 130 294 q 107 266 107 225 q 107 173 142 144 q 178 114 241 114 q 295 114 325 136 q 355 158 355 197 q 355 220 344 237 q 334 254 314 270 q 294 287 265 305 q 236 323 199 347 z"},"\\":{"x_min":0,"x_max":532,"ha":532,"o":"m 29 976 q 9 1035 38 1067 q 68 1099 143 1099 q 151 1076 168 1026 q 186 977 209 910 q 232 844 260 766 q 287 687 315 606 q 343 525 370 446 q 396 367 418 299 q 440 231 456 180 q 471 129 476 103 q 487 50 476 23 q 466 -4 435 0 z"},"e":{"x_min":0,"x_max":431,"ha":431,"o":"m 441 226 q 424 192 397 164 q 370 136 336 116 q 302 97 262 86 q 222 75 179 75 q 131 75 91 88 q 51 101 22 124 q -7 148 -23 180 q -39 212 -39 251 q -39 293 -20 330 q -2 367 30 394 q 63 421 106 437 q 149 453 198 453 q 231 453 258 446 q 286 438 306 426 q 327 413 338 396 q 349 378 349 357 q 349 330 331 304 q 313 278 284 258 q 256 238 220 226 q 183 213 147 213 q 139 213 132 214 q 126 214 120 215 q 131 179 164 158 q 196 136 241 136 q 294 136 333 164 q 372 191 398 236 z m 114 242 q 159 251 188 278 q 217 304 229 332 q 241 361 236 383 q 231 405 210 405 q 194 405 176 390 q 159 374 146 350 q 132 327 123 298 q 114 269 114 242 z"},"b":{"x_min":0,"x_max":580,"ha":580,"o":"m -39 223 l 151 700 q 172 700 194 695 q 215 690 234 680 q 252 670 264 656 q 277 641 279 622 q 271 600 260 570 q 250 539 237 503 l 193 378 q 225 410 266 432 q 306 453 356 453 q 422 453 461 415 q 500 377 500 314 q 500 267 478 224 q 456 182 420 150 q 383 117 334 98 q 285 78 231 78 q 185 78 152 92 q 118 106 105 131 l 105 130 q 99 113 94 100 q 90 86 85 74 q 55 74 28 84 q 0 93 -18 112 q -37 130 -44 158 q -50 186 -39 223 z m 124 176 q 132 160 149 150 q 166 140 189 140 q 219 140 250 157 q 280 174 304 202 q 328 229 343 263 q 358 297 358 331 q 358 390 312 390 q 291 390 269 377 q 247 364 227 344 q 207 323 190 298 q 172 273 158 249 q 144 225 136 206 q 127 186 124 176 z"},"%":{"x_min":0,"x_max":637,"ha":637,"o":"m 139 420 q 98 420 74 439 q 51 458 44 487 q 36 516 42 549 q 48 582 66 611 q 83 640 110 659 q 137 678 170 678 q 204 678 226 659 q 248 640 258 611 q 269 582 267 549 q 265 516 250 487 q 236 458 208 439 q 180 420 139 420 z m 131 216 l 416 670 q 449 673 466 663 q 483 653 490 637 q 497 621 495 602 q 493 583 487 567 q 471 523 439 458 q 407 394 371 325 q 335 256 303 192 q 271 127 255 83 q 180 83 146 120 q 111 158 131 216 z m 125 446 q 137 446 150 462 q 164 477 176 500 q 188 523 198 550 q 207 576 211 599 q 215 622 212 638 q 210 653 199 653 q 188 653 174 638 q 161 622 149 599 q 137 576 127 550 q 117 523 112 500 q 108 477 110 462 q 113 446 125 446 z m 466 89 q 425 89 402 108 q 378 127 370 156 q 363 185 369 218 q 375 251 392 280 q 410 309 436 328 q 463 347 497 347 q 531 347 553 328 q 575 309 586 280 q 596 251 594 218 q 592 185 578 156 q 563 127 536 108 q 508 89 466 89 z m 452 115 q 464 115 478 130 q 491 146 503 169 q 515 192 524 218 q 534 245 538 268 q 542 291 540 306 q 537 322 526 322 q 515 322 502 306 q 488 291 476 268 q 464 245 454 218 q 444 192 440 169 q 435 146 438 130 q 440 115 452 115 z"},"m":{"x_min":0,"x_max":863,"ha":863,"o":"m 519 162 q 519 184 530 210 q 540 236 554 262 q 568 288 582 312 q 597 337 606 356 q 614 374 612 386 q 610 397 592 397 q 575 397 557 387 q 539 377 521 360 q 503 343 486 320 q 468 298 452 273 q 434 223 415 174 q 396 126 375 70 q 354 70 332 76 q 311 81 292 91 q 274 101 262 116 q 249 130 247 149 q 252 163 260 186 q 269 210 278 238 q 287 265 294 294 q 302 322 304 345 q 306 368 301 382 q 296 397 281 397 q 269 397 255 388 q 241 379 225 363 q 209 347 193 326 q 177 304 161 280 q 141 229 122 178 q 104 126 85 74 q 24 74 -8 104 q -39 134 -39 179 q -39 207 -28 240 q -17 273 0 309 q 18 345 39 382 q 60 419 79 455 q 126 454 158 436 q 190 419 200 393 q 229 421 264 438 q 298 454 340 454 q 362 454 384 449 q 405 444 424 434 q 442 424 456 410 q 469 395 475 375 q 507 411 544 434 q 581 456 629 456 q 653 456 676 450 q 698 443 714 430 q 731 416 741 396 q 751 375 751 348 q 741 329 728 306 q 715 282 704 258 q 692 235 683 212 q 674 189 672 172 q 670 154 676 144 q 683 133 702 133 q 734 133 769 162 q 804 190 830 236 l 873 226 q 831 154 771 114 q 711 74 644 74 q 620 74 597 80 q 574 85 557 96 q 540 108 530 124 q 519 141 519 162 z"},"#":{"x_min":0,"x_max":661,"ha":661,"o":"m 53 206 l 96 304 l 42 304 q 23 307 20 343 l 114 343 l 166 461 l 99 461 q 80 464 77 500 l 183 500 l 258 670 q 282 672 300 664 q 317 657 324 636 q 331 616 327 582 q 323 549 305 500 l 446 500 l 521 670 q 545 672 562 664 q 580 657 587 636 q 594 616 590 582 q 586 549 568 500 l 661 500 q 661 484 654 472 q 647 461 637 461 l 554 461 q 546 438 534 408 q 522 378 508 343 l 604 343 q 604 327 597 316 q 590 304 580 304 l 493 304 l 493 305 q 470 245 448 185 q 425 125 410 83 q 273 83 316 206 l 359 304 l 231 305 q 208 245 185 185 q 162 125 147 83 q 10 83 53 206 z m 291 461 q 283 438 271 408 q 259 378 245 343 l 377 343 l 429 461 z"},",":{"x_min":0,"x_max":268,"ha":268,"o":"m 199 172 q 199 150 187 128 q 175 105 156 86 q 138 68 114 56 q 91 45 68 45 q 41 45 26 63 q 84 100 84 155 q 84 176 76 198 q 79 220 93 232 q 107 245 128 245 q 157 245 178 224 q 199 203 199 172 z"},"n":{"x_min":0,"x_max":585,"ha":585,"o":"m 241 162 q 241 184 252 210 q 262 236 276 262 q 290 288 305 312 q 320 337 328 356 q 336 374 334 386 q 333 397 315 397 q 291 397 264 378 q 236 358 210 328 q 183 298 160 261 q 136 224 120 189 q 118 182 115 175 q 112 168 110 160 l 89 103 q 84 87 79 74 q 18 74 -14 104 q -45 134 -45 179 q -45 207 -34 240 q -23 273 -6 309 q 12 345 33 382 q 54 419 73 455 q 126 454 160 432 q 193 410 198 380 q 231 414 268 435 q 305 456 351 456 q 375 456 398 450 q 420 443 436 430 q 453 416 463 396 q 473 375 473 348 q 463 329 450 306 q 437 282 426 258 q 414 235 405 212 q 396 189 394 172 q 392 154 398 144 q 405 133 424 133 q 456 133 491 162 q 526 190 552 236 l 595 226 q 553 154 493 114 q 433 74 366 74 q 342 74 319 80 q 296 85 279 96 q 262 108 252 124 q 241 141 241 162 z"},"h":{"x_min":0,"x_max":619,"ha":619,"o":"m 147 700 q 168 700 190 695 q 211 690 230 680 q 248 670 260 656 q 273 641 275 622 q 259 579 234 507 q 209 435 181 356 q 225 401 276 428 q 327 456 382 456 q 408 456 430 450 q 453 443 470 430 q 487 416 497 396 q 507 375 507 348 q 497 329 484 306 q 471 282 460 258 q 448 235 439 212 q 430 189 428 172 q 426 154 432 144 q 439 133 458 133 q 490 133 525 162 q 560 190 586 236 l 629 226 q 587 154 527 114 q 467 74 400 74 q 376 74 353 80 q 330 85 313 96 q 296 108 286 124 q 275 141 275 162 q 275 184 286 210 q 296 236 310 262 q 324 288 338 312 q 353 337 361 356 q 369 374 367 386 q 365 397 346 397 q 321 397 288 377 q 255 357 222 326 q 190 295 163 258 q 136 221 121 187 q 103 132 82 76 q -45 76 -45 209 z"},"z":{"x_min":0,"x_max":423,"ha":423,"o":"m 267 460 q 292 466 312 458 q 331 449 342 432 q 352 416 352 394 q 352 373 337 352 q 242 280 176 224 q 111 169 84 130 q 104 139 124 150 q 143 160 163 168 q 183 177 204 182 q 224 187 245 187 q 276 186 298 174 q 320 161 329 143 q 338 125 332 106 q 327 88 304 75 q 281 85 254 88 q 228 92 200 92 q 174 92 148 90 q 122 87 100 84 q 78 80 60 77 q 43 74 33 73 q -3 68 -30 81 q -57 94 -70 116 q -83 139 -79 168 q -75 196 -49 222 q -35 236 -4 258 q 27 280 66 306 q 106 332 150 359 q 193 386 232 410 q 213 406 188 401 q 164 396 140 392 q 117 387 96 384 q 76 381 64 381 q 20 381 2 396 q -17 412 -18 430 q -18 449 -6 464 q 7 480 25 480 q 34 474 52 469 q 70 464 93 460 q 116 457 142 455 q 168 453 192 453 q 215 453 234 454 q 253 456 267 460 z"},"B":{"x_min":0,"x_max":2126,"ha":2126,"o":"m 172 259 q 100 302 61 372 q 22 442 22 536 q 22 654 84 761 q 147 868 258 956 q 369 1045 522 1112 q 676 1179 859 1216 q 846 1249 828 1278 q 810 1307 786 1330 q 762 1352 732 1365 q 702 1378 664 1378 q 638 1378 615 1372 q 592 1366 577 1356 q 568 1374 572 1390 q 576 1407 588 1419 q 600 1431 617 1438 q 634 1445 650 1445 q 692 1445 732 1424 q 771 1404 804 1372 q 838 1340 864 1301 q 889 1262 902 1225 q 1081 1258 1278 1258 q 1449 1258 1590 1234 q 1732 1211 1839 1166 q 1900 1205 1957 1226 q 2014 1246 2068 1243 q 2112 1241 2138 1226 q 2165 1210 2165 1188 q 2165 1171 2149 1160 q 2133 1149 2110 1149 q 2109 1171 2096 1182 q 2083 1194 2051 1196 q 2012 1198 1973 1183 q 1934 1168 1894 1140 q 1992 1089 2046 1022 q 2099 956 2099 875 q 2099 821 2074 772 q 2049 724 2003 684 q 1957 645 1891 616 q 1825 587 1744 571 q 1881 554 1956 498 q 2030 442 2030 355 q 2030 289 1988 226 q 1946 164 1876 116 q 1807 67 1718 38 q 1628 8 1534 8 q 1414 8 1346 56 q 1277 104 1277 189 q 1277 209 1282 231 q 1286 253 1296 272 q 1306 291 1322 303 q 1338 315 1362 315 q 1385 315 1406 302 q 1426 289 1436 265 q 1340 233 1340 165 q 1340 121 1380 96 q 1419 72 1491 72 q 1562 72 1627 96 q 1692 120 1742 160 q 1791 201 1821 254 q 1851 308 1851 366 q 1851 446 1792 490 q 1734 534 1624 536 q 1607 536 1598 544 q 1589 551 1592 561 q 1595 571 1612 581 q 1630 591 1665 595 q 1721 601 1771 628 q 1821 655 1860 696 q 1898 736 1920 786 q 1943 837 1943 891 q 1943 950 1914 1000 q 1886 1050 1832 1090 q 1766 1030 1697 944 q 1628 859 1556 760 q 1483 661 1406 554 q 1328 447 1245 345 q 1162 243 1073 151 q 984 59 888 -10 q 793 -79 690 -120 q 587 -160 475 -160 q 375 -160 299 -127 q 223 -94 181 -37 q 139 20 134 96 q 130 172 172 259 z m 207 241 q 180 183 180 129 q 180 75 206 33 q 231 -9 280 -34 q 329 -60 399 -60 q 483 -60 570 -22 q 657 15 745 80 q 833 144 922 230 q 1011 315 1100 410 q 1188 506 1276 606 q 1363 707 1448 802 q 1534 896 1617 979 q 1700 1062 1779 1123 q 1694 1169 1573 1194 q 1452 1219 1300 1219 q 1200 1219 1104 1208 q 1008 1197 917 1176 q 929 1128 932 1076 q 936 1023 931 968 q 1020 950 1067 894 q 1114 837 1114 747 q 1114 679 1086 612 q 1059 544 1010 484 q 962 423 896 371 q 830 319 752 282 q 675 244 589 222 q 503 201 415 201 q 296 201 207 241 z m 474 394 q 396 397 354 440 q 311 484 311 561 q 311 614 332 666 q 352 717 388 763 q 425 809 475 848 q 525 887 584 916 q 643 944 708 960 q 773 976 840 976 q 854 976 866 976 q 879 975 890 974 q 898 1077 875 1166 q 718 1126 585 1060 q 452 994 355 910 q 258 825 204 726 q 149 627 149 522 q 149 395 228 326 q 307 256 451 256 q 524 256 596 274 q 668 292 734 323 q 799 354 856 396 q 912 439 954 488 q 996 538 1020 592 q 1043 647 1043 701 q 1043 765 1010 809 q 977 853 917 873 q 901 792 864 708 q 828 623 772 553 q 717 483 642 438 q 568 394 474 394 z m 878 883 q 847 889 809 889 q 724 889 644 860 q 564 832 502 786 q 439 739 401 679 q 363 619 363 556 q 363 498 396 465 q 429 432 489 430 q 566 433 630 472 q 695 511 745 574 q 795 637 828 718 q 862 798 878 883 z"},"K":{"x_min":0,"x_max":2354,"ha":2354,"o":"m 2369 226 q 2325 152 2264 113 q 2202 74 2127 74 q 2022 74 1964 148 q 1906 223 1906 357 q 1906 380 1906 409 q 1907 438 1904 470 q 1902 502 1893 534 q 1884 565 1866 592 q 1847 618 1816 638 q 1786 657 1739 664 q 1714 576 1688 485 q 1662 394 1630 310 q 1597 225 1556 150 q 1514 76 1457 20 q 1400 -35 1324 -67 q 1249 -99 1150 -99 q 1044 -99 968 -63 q 891 -27 849 35 q 789 11 718 -2 q 647 -15 569 -15 q 441 -15 336 20 q 231 56 156 120 q 82 184 41 274 q 0 364 0 473 q 0 569 32 654 q 63 740 120 808 q 176 875 254 920 q 331 965 424 980 q 499 1080 626 1133 q 754 1186 922 1186 q 1043 1186 1132 1155 q 1188 1184 1260 1200 q 1333 1216 1426 1216 q 1485 1216 1535 1210 q 1585 1204 1630 1197 q 1675 1190 1716 1184 q 1757 1178 1798 1178 q 1855 1178 1910 1193 q 1965 1208 2016 1235 q 2047 1238 2045 1202 q 2029 1193 2015 1182 q 2001 1170 1984 1152 q 1911 1076 1854 968 q 1798 859 1751 706 q 1823 712 1878 746 q 1934 779 1980 826 q 2026 872 2066 924 q 2106 977 2146 1022 q 2187 1066 2232 1096 q 2277 1125 2333 1125 q 2364 1127 2384 1110 q 2405 1092 2405 1063 q 2405 1033 2382 1010 q 2347 1021 2316 1021 q 2272 1021 2236 1001 q 2200 981 2167 950 q 2134 919 2102 880 q 2069 842 2033 804 q 1997 767 1955 734 q 1913 702 1860 684 q 1917 664 1954 630 q 1991 595 2014 552 q 2038 510 2050 462 q 2062 415 2070 368 q 2078 321 2084 278 q 2090 236 2102 204 q 2113 171 2132 152 q 2151 133 2184 133 q 2223 133 2260 160 q 2297 187 2326 236 z m 672 422 q 578 422 506 463 q 434 504 392 571 q 350 638 344 724 q 338 809 376 898 q 324 873 282 830 q 239 788 209 733 q 179 678 162 612 q 146 547 146 476 q 146 376 179 294 q 212 211 272 152 q 332 94 416 62 q 501 29 605 29 q 665 29 722 40 q 778 50 829 70 q 807 120 807 184 q 807 223 816 261 q 825 299 844 329 q 863 359 893 378 q 923 397 964 397 q 1014 397 1043 366 q 1072 335 1072 281 q 1072 214 1026 156 q 979 99 899 58 q 931 17 980 -6 q 1030 -30 1095 -30 q 1179 -30 1240 10 q 1301 51 1346 119 q 1392 187 1426 276 q 1459 365 1490 464 q 1520 562 1551 662 q 1582 763 1622 854 q 1662 944 1714 1018 q 1766 1093 1839 1138 q 1786 1139 1751 1142 q 1716 1144 1692 1148 q 1667 1151 1650 1155 q 1633 1159 1616 1162 q 1598 1166 1577 1168 q 1556 1170 1524 1170 q 1422 1170 1346 1148 q 1270 1126 1217 1090 q 1164 1054 1132 1008 q 1101 963 1090 915 q 1078 867 1084 822 q 1090 776 1112 740 q 1135 704 1172 682 q 1208 660 1257 660 q 1334 660 1400 714 q 1467 769 1506 865 q 1526 906 1520 950 q 1515 994 1480 1026 q 1480 1049 1497 1062 q 1514 1075 1535 1075 q 1569 1075 1581 1055 q 1593 1035 1592 1008 q 1591 981 1582 952 q 1574 924 1567 906 q 1461 620 1233 620 q 1161 620 1106 646 q 1050 672 1014 714 q 977 757 962 811 q 946 865 954 922 q 961 978 993 1032 q 1025 1086 1085 1127 q 1015 1145 931 1145 q 802 1145 700 1105 q 599 1065 533 988 q 631 988 705 964 q 779 939 830 899 q 881 859 909 808 q 937 758 944 705 q 950 652 936 601 q 921 550 886 510 q 852 471 798 446 q 744 422 672 422 z m 690 462 q 763 462 812 497 q 860 532 882 585 q 903 638 896 700 q 889 761 850 814 q 812 867 742 902 q 671 937 565 937 q 548 937 530 936 q 512 935 493 933 q 462 880 449 824 q 436 768 440 716 q 444 663 464 617 q 483 571 516 536 q 548 502 592 482 q 636 462 690 462 z m 961 362 q 932 362 911 348 q 890 335 877 314 q 864 292 858 264 q 852 236 852 207 q 852 175 859 144 q 866 114 877 92 q 947 128 990 178 q 1032 229 1032 286 q 1032 322 1014 342 q 996 362 961 362 z"},"R":{"x_min":0,"x_max":2071,"ha":2071,"o":"m 239 229 q 136 265 79 344 q 22 424 22 538 q 22 658 85 766 q 148 875 260 964 q 371 1054 524 1120 q 677 1187 856 1223 q 828 1291 777 1330 q 726 1369 665 1369 q 620 1369 577 1347 q 567 1368 568 1385 q 570 1402 581 1415 q 592 1428 611 1435 q 630 1442 654 1442 q 683 1442 716 1430 q 749 1419 782 1394 q 815 1369 846 1329 q 877 1289 900 1231 q 995 1248 1092 1254 q 1189 1261 1280 1258 q 1437 1253 1560 1223 q 1682 1193 1778 1145 q 1840 1194 1900 1220 q 1959 1246 2019 1243 q 2061 1241 2088 1226 q 2115 1210 2115 1188 q 2115 1171 2099 1160 q 2083 1149 2060 1149 q 2059 1195 2000 1196 q 1956 1197 1914 1176 q 1872 1155 1829 1117 q 1892 1080 1941 1036 q 1990 992 2023 944 q 2056 897 2073 848 q 2090 798 2090 749 q 2090 686 2060 628 q 2030 569 1968 522 q 1906 474 1810 442 q 1714 409 1583 397 q 1631 378 1663 348 q 1695 317 1716 280 q 1737 243 1749 202 q 1761 161 1770 122 q 1779 82 1788 46 q 1796 9 1809 -18 q 1822 -45 1842 -62 q 1863 -78 1896 -78 q 1941 -78 1984 -49 q 2027 -20 2057 28 q 2077 32 2088 24 q 2098 15 2092 0 q 2063 -54 2033 -93 q 2003 -132 1968 -157 q 1934 -182 1894 -194 q 1855 -206 1808 -206 q 1742 -206 1704 -186 q 1665 -165 1644 -130 q 1623 -95 1615 -50 q 1607 -4 1604 46 q 1601 97 1598 148 q 1594 200 1582 246 q 1569 293 1543 330 q 1517 368 1468 391 q 1459 393 1454 406 q 1450 419 1455 431 q 1563 431 1646 457 q 1730 483 1786 528 q 1842 572 1871 630 q 1900 688 1900 752 q 1900 825 1863 900 q 1826 976 1756 1041 q 1698 971 1639 879 q 1580 787 1518 684 q 1457 581 1392 472 q 1327 364 1257 262 q 1187 159 1111 68 q 1035 -24 951 -92 q 867 -160 775 -200 q 683 -240 580 -240 q 510 -240 451 -221 q 392 -202 346 -169 q 301 -136 270 -91 q 239 -46 224 6 q 210 58 213 115 q 216 172 239 229 z m 277 217 q 253 154 258 90 q 264 27 294 -24 q 324 -75 377 -108 q 430 -140 503 -140 q 580 -140 658 -102 q 735 -65 812 0 q 888 64 964 150 q 1041 237 1116 334 q 1192 432 1267 535 q 1342 638 1416 737 q 1489 836 1562 925 q 1635 1014 1706 1082 q 1626 1141 1516 1178 q 1406 1215 1261 1220 q 1178 1223 1090 1214 q 1001 1206 914 1187 q 942 1084 931 968 q 1020 950 1067 894 q 1114 837 1114 747 q 1114 679 1086 612 q 1059 544 1010 484 q 962 423 896 371 q 830 319 752 282 q 674 244 588 222 q 501 201 413 201 q 377 201 343 205 q 309 209 277 217 z m 474 394 q 396 397 354 440 q 311 484 311 561 q 311 614 332 666 q 352 717 388 763 q 425 809 475 848 q 525 887 584 916 q 643 944 708 960 q 773 976 840 976 q 854 976 866 976 q 879 975 890 974 q 898 1084 872 1177 q 721 1139 589 1073 q 457 1007 360 922 q 262 836 206 734 q 149 633 149 525 q 149 396 228 326 q 307 256 451 256 q 524 256 596 274 q 668 292 734 323 q 799 354 856 396 q 912 439 954 488 q 996 538 1020 592 q 1043 647 1043 701 q 1043 765 1010 809 q 977 853 917 873 q 901 792 864 708 q 828 623 772 553 q 717 483 642 438 q 568 394 474 394 z m 878 883 q 847 889 809 889 q 724 889 644 860 q 564 832 502 786 q 439 739 401 679 q 363 619 363 556 q 363 498 396 465 q 429 432 489 430 q 566 433 630 472 q 695 511 745 574 q 795 637 828 718 q 862 798 878 883 z"},"T":{"x_min":0,"x_max":1906,"ha":1906,"o":"m 733 -62 q 695 -78 648 -86 q 602 -95 541 -95 q 418 -95 324 -60 q 230 -26 164 32 q 97 91 58 168 q 18 245 6 330 q -7 415 6 503 q 20 591 60 671 q 99 751 164 818 q 228 884 317 927 q 341 996 390 1060 q 438 1123 510 1171 q 581 1219 676 1248 q 770 1276 888 1276 q 952 1276 1004 1267 q 1055 1258 1101 1240 q 1150 1270 1215 1288 q 1280 1306 1364 1306 q 1439 1306 1517 1292 q 1595 1278 1674 1257 q 1754 1236 1834 1211 q 1913 1186 1992 1165 q 2070 1144 2146 1130 q 2223 1116 2295 1116 q 2459 1116 2548 1199 q 2558 1206 2567 1206 q 2578 1206 2582 1196 q 2586 1187 2580 1171 q 2538 1077 2458 1027 q 2378 977 2270 977 q 2206 977 2140 994 q 2075 1012 2013 1045 q 1954 1000 1909 924 q 1864 848 1824 754 q 1785 661 1747 557 q 1709 453 1664 352 q 1620 250 1564 158 q 1508 65 1432 -6 q 1357 -76 1258 -118 q 1160 -160 1029 -160 q 926 -160 852 -134 q 779 -108 733 -62 z m 1488 1116 q 1488 1125 1494 1134 q 1499 1142 1508 1149 q 1517 1156 1528 1160 q 1539 1164 1549 1163 q 1583 1159 1600 1128 q 1617 1098 1617 1053 q 1617 1018 1606 978 q 1596 937 1574 897 q 1553 857 1520 820 q 1488 782 1444 754 q 1400 725 1344 708 q 1288 691 1220 691 q 1166 691 1117 707 q 1068 723 1030 757 q 993 791 970 843 q 948 895 948 967 q 948 1033 976 1098 q 1003 1162 1062 1212 q 1024 1224 984 1230 q 944 1235 900 1235 q 809 1235 734 1214 q 660 1193 602 1156 q 544 1120 502 1072 q 461 1023 435 968 q 515 988 596 988 q 688 988 757 964 q 826 939 872 900 q 919 860 944 809 q 968 758 971 705 q 974 652 956 601 q 937 550 898 510 q 858 471 798 446 q 738 422 658 422 q 564 422 493 456 q 422 489 376 544 q 329 599 308 670 q 288 741 294 817 q 230 749 194 658 q 158 567 150 470 q 143 374 164 280 q 185 185 236 111 q 286 37 366 -8 q 447 -54 558 -54 q 601 -54 637 -47 q 673 -40 705 -28 q 677 14 668 64 q 659 113 671 166 q 688 242 734 279 q 780 316 833 316 q 886 316 913 283 q 940 250 940 201 q 940 174 932 144 q 923 113 906 83 q 888 53 862 24 q 835 -4 800 -27 q 829 -43 866 -52 q 903 -60 948 -60 q 1046 -60 1126 -21 q 1206 18 1274 84 q 1341 150 1399 237 q 1457 324 1510 420 q 1563 515 1614 612 q 1665 710 1720 798 q 1774 885 1834 956 q 1895 1028 1967 1071 q 1900 1100 1838 1133 q 1776 1166 1713 1194 q 1650 1222 1583 1241 q 1516 1260 1440 1260 q 1344 1260 1276 1230 q 1207 1200 1162 1153 q 1118 1106 1097 1048 q 1076 990 1076 934 q 1076 880 1090 841 q 1105 802 1130 777 q 1155 752 1188 740 q 1220 728 1256 728 q 1323 728 1377 754 q 1431 779 1469 819 q 1507 859 1528 907 q 1548 955 1548 1000 q 1548 1036 1534 1066 q 1519 1097 1488 1116 z m 410 904 q 387 825 393 746 q 399 667 434 604 q 469 541 532 502 q 595 462 685 462 q 772 462 830 498 q 887 534 914 588 q 940 642 936 705 q 931 768 893 822 q 855 876 784 912 q 713 948 607 948 q 549 948 500 936 q 452 925 410 904 z m 762 1 q 796 22 822 48 q 847 74 864 102 q 882 130 891 157 q 900 184 900 208 q 900 240 884 260 q 867 281 833 281 q 814 281 795 274 q 776 266 760 251 q 743 236 731 214 q 719 193 713 164 q 704 118 716 76 q 729 33 762 1 z"},"P":{"x_min":0,"x_max":2111,"ha":2111,"o":"m 239 229 q 136 265 79 344 q 22 424 22 538 q 22 658 85 766 q 148 875 260 964 q 371 1054 524 1120 q 677 1187 856 1223 q 843 1254 825 1280 q 807 1307 784 1327 q 760 1347 730 1358 q 701 1370 665 1370 q 615 1370 577 1346 q 568 1363 570 1378 q 573 1394 584 1406 q 594 1418 612 1425 q 629 1432 652 1432 q 694 1432 732 1414 q 771 1396 804 1368 q 836 1339 860 1303 q 885 1267 900 1231 q 1089 1264 1295 1258 q 1444 1253 1570 1228 q 1696 1203 1798 1161 q 1855 1203 1910 1224 q 1965 1246 2019 1243 q 2061 1241 2088 1226 q 2115 1210 2115 1188 q 2115 1171 2099 1160 q 2083 1149 2060 1149 q 2059 1195 2001 1196 q 1963 1197 1926 1181 q 1888 1165 1851 1136 q 1989 1067 2064 968 q 2140 869 2140 747 q 2140 678 2116 614 q 2091 551 2047 497 q 2003 443 1943 399 q 1883 355 1812 324 q 1741 293 1662 276 q 1582 258 1500 257 q 1459 257 1435 260 q 1411 264 1400 270 q 1389 276 1387 283 q 1385 290 1388 296 q 1511 296 1615 329 q 1719 362 1794 421 q 1869 480 1912 562 q 1954 643 1954 739 q 1954 838 1910 922 q 1865 1005 1780 1068 q 1720 1002 1660 910 q 1600 819 1538 715 q 1475 611 1408 500 q 1342 388 1271 282 q 1200 176 1122 81 q 1045 -14 960 -85 q 874 -156 780 -198 q 685 -240 580 -240 q 510 -240 451 -221 q 392 -202 346 -169 q 301 -136 270 -91 q 239 -46 224 6 q 210 58 213 115 q 216 172 239 229 z m 277 217 q 253 154 258 90 q 264 27 294 -24 q 324 -75 377 -108 q 430 -140 503 -140 q 582 -140 660 -101 q 739 -62 818 4 q 896 71 974 160 q 1051 249 1128 350 q 1205 450 1282 556 q 1358 661 1433 760 q 1508 860 1582 948 q 1656 1037 1728 1103 q 1641 1155 1527 1185 q 1413 1215 1273 1220 q 1181 1223 1091 1214 q 1001 1206 914 1187 q 942 1084 931 968 q 1020 950 1067 894 q 1114 837 1114 747 q 1114 679 1086 612 q 1059 544 1010 484 q 962 423 896 371 q 830 319 752 282 q 674 244 588 222 q 501 201 413 201 q 377 201 343 205 q 309 209 277 217 z m 474 394 q 396 397 354 440 q 311 484 311 561 q 311 614 332 666 q 352 717 388 763 q 425 809 475 848 q 525 887 584 916 q 643 944 708 960 q 773 976 840 976 q 854 976 866 976 q 879 975 890 974 q 898 1084 872 1177 q 721 1139 589 1073 q 457 1007 360 922 q 262 836 206 734 q 149 633 149 525 q 149 396 228 326 q 307 256 451 256 q 524 256 596 274 q 668 292 734 323 q 799 354 856 396 q 912 439 954 488 q 996 538 1020 592 q 1043 647 1043 701 q 1043 765 1010 809 q 977 853 917 873 q 901 792 864 708 q 828 623 772 553 q 717 483 642 438 q 568 394 474 394 z m 878 883 q 847 889 809 889 q 724 889 644 860 q 564 832 502 786 q 439 739 401 679 q 363 619 363 556 q 363 498 396 465 q 429 432 489 430 q 566 433 630 472 q 695 511 745 574 q 795 637 828 718 q 862 798 878 883 z"},"|":{"x_min":0,"x_max":304,"ha":304,"o":"m 226 976 l 184 0 q 169 -2 152 0 q 136 3 122 12 q 109 22 100 40 q 91 59 91 89 l 82 1099 q 157 1099 192 1068 q 226 1038 226 976 z"},"t":{"x_min":0,"x_max":370,"ha":370,"o":"m 127 65 q 88 65 53 74 q 18 84 -6 104 q -30 123 -40 154 q -50 184 -39 225 l 18 390 l -25 390 q -26 396 -24 405 q -21 414 -16 422 q -11 431 -4 438 q 3 444 11 444 l 37 444 l 97 616 q 123 616 146 610 q 169 603 186 592 q 204 582 215 568 q 226 554 227 538 q 221 520 212 496 q 202 472 191 444 l 290 444 q 291 438 288 429 q 286 420 281 412 q 276 403 269 396 q 262 390 254 390 l 170 390 q 153 344 138 298 q 123 252 117 222 q 106 168 121 142 q 136 115 173 115 q 217 115 262 148 q 308 181 337 236 l 380 226 q 291 65 127 65 z"},"M":{"x_min":0,"x_max":2857,"ha":2857,"o":"m 2755 883 q 2683 832 2610 768 q 2538 703 2460 620 q 2383 538 2298 434 q 2214 330 2118 200 q 2089 153 2056 112 q 2022 71 1982 33 q 1953 32 1954 61 q 2005 147 2028 228 q 2051 309 2059 388 q 2067 466 2066 543 q 2065 620 2067 698 q 2069 777 2080 858 q 2091 939 2124 1024 q 2072 940 2025 840 q 1978 740 1932 634 q 1887 528 1840 420 q 1794 313 1743 214 q 1692 114 1634 28 q 1576 -59 1506 -122 q 1437 -186 1354 -223 q 1271 -260 1171 -260 q 1066 -260 984 -219 q 901 -178 853 -103 q 805 -115 754 -121 q 704 -127 651 -127 q 507 -127 387 -82 q 267 -37 181 45 q 95 127 48 241 q 0 355 0 492 q 0 622 47 731 q 94 840 180 920 q 265 1000 384 1046 q 502 1093 644 1097 q 706 1180 794 1243 q 882 1306 987 1348 q 1092 1391 1210 1412 q 1329 1434 1453 1434 q 1554 1434 1656 1420 q 1758 1405 1856 1376 q 1954 1347 2047 1302 q 2140 1258 2222 1199 q 2286 1262 2349 1291 q 2370 1300 2369 1269 q 2312 1233 2290 1145 q 2313 1125 2348 1096 q 2382 1066 2414 1032 q 2445 998 2468 962 q 2490 926 2490 892 q 2490 856 2467 832 q 2444 808 2413 808 q 2387 808 2366 825 q 2374 840 2378 862 q 2382 883 2382 906 q 2382 957 2358 1002 q 2334 1048 2281 1098 q 2271 1032 2270 952 q 2268 871 2264 781 q 2261 691 2250 594 q 2239 498 2209 401 q 2329 557 2454 682 q 2580 807 2702 894 q 2824 981 2938 1028 q 3053 1075 3152 1075 q 3206 1075 3206 1048 q 3206 1034 3195 1018 q 3184 1003 3166 991 q 3139 1029 3102 1029 q 3036 1029 2942 911 q 2903 862 2865 802 q 2827 743 2793 680 q 2759 616 2730 551 q 2701 486 2680 425 q 2660 364 2648 310 q 2636 256 2636 216 q 2636 133 2695 133 q 2731 133 2768 160 q 2804 188 2832 236 l 2875 226 q 2775 51 2597 51 q 2435 51 2435 198 q 2435 252 2460 333 q 2485 414 2528 507 q 2572 600 2630 698 q 2689 795 2755 883 z m 834 -68 q 817 -33 810 6 q 802 46 802 87 q 802 154 822 220 q 842 286 880 338 q 918 390 972 422 q 1027 455 1096 455 q 1179 455 1227 408 q 1275 361 1275 281 q 1275 222 1248 167 q 1221 112 1173 64 q 1125 16 1058 -22 q 992 -61 914 -86 q 943 -117 986 -134 q 1028 -150 1083 -150 q 1171 -150 1251 -108 q 1331 -67 1405 4 q 1479 75 1548 170 q 1617 264 1682 370 q 1748 476 1812 588 q 1875 700 1938 806 q 2000 912 2064 1006 q 2127 1100 2193 1170 q 2117 1225 2030 1267 q 1944 1309 1852 1337 q 1759 1365 1662 1380 q 1566 1394 1470 1394 q 1362 1394 1258 1376 q 1153 1357 1058 1320 q 964 1282 883 1226 q 802 1170 741 1094 q 825 1086 900 1060 q 976 1035 1032 994 q 1088 953 1121 897 q 1154 841 1154 772 q 1154 723 1136 680 q 1119 636 1086 603 q 1052 570 1002 551 q 953 532 889 532 q 823 532 767 553 q 711 574 669 610 q 627 647 600 696 q 573 746 564 802 q 556 859 566 920 q 577 982 611 1043 q 508 1030 423 982 q 338 935 277 860 q 216 786 182 688 q 149 591 149 478 q 149 356 188 253 q 228 150 299 75 q 370 0 469 -42 q 568 -84 687 -84 q 725 -84 762 -80 q 799 -76 834 -68 z m 908 572 q 981 572 1028 606 q 1076 641 1095 694 q 1114 746 1102 807 q 1091 868 1045 921 q 999 974 917 1010 q 835 1046 713 1048 q 681 995 668 939 q 654 883 658 830 q 661 777 680 730 q 699 684 732 648 q 764 613 808 592 q 853 572 908 572 z m 1099 418 q 1042 418 995 390 q 948 362 915 317 q 882 272 864 215 q 846 158 846 100 q 846 58 856 18 q 866 -21 888 -54 q 961 -32 1024 4 q 1088 39 1134 84 q 1181 128 1208 180 q 1235 231 1235 284 q 1235 347 1199 382 q 1163 418 1099 418 z"},"g":{"x_min":0,"x_max":520,"ha":520,"o":"m 51 -196 q 0 -196 -30 -172 q -59 -149 -59 -111 q -59 -80 -39 -51 q -19 -22 16 0 q 52 23 99 38 q 146 52 200 56 q 205 73 210 88 q 214 103 221 129 q 197 109 166 98 q 135 88 102 88 q 38 88 0 126 q -39 165 -39 229 q -39 275 -19 316 q 1 357 36 388 q 71 418 118 436 q 164 453 217 453 q 271 453 309 434 l 318 460 q 345 460 370 453 q 395 446 414 436 q 434 425 446 410 q 459 396 460 381 q 445 345 432 306 q 420 266 406 225 q 393 184 378 141 q 362 98 342 55 q 395 52 436 33 q 441 28 442 20 q 442 13 439 6 q 436 0 430 -4 q 425 -8 418 -8 q 400 1 375 6 q 350 11 321 12 q 270 -87 198 -142 q 127 -196 51 -196 z m 297 398 q 287 401 274 401 q 243 401 212 384 q 182 367 158 340 q 133 312 118 278 q 103 244 103 210 q 103 151 147 151 q 173 151 199 172 q 225 194 240 228 q 253 271 268 314 q 283 358 297 398 z m 183 8 q 157 5 126 -10 q 95 -26 68 -48 q 42 -70 24 -94 q 7 -117 7 -135 q 7 -146 21 -146 q 41 -146 64 -134 q 87 -122 110 -101 q 132 -80 152 -52 q 171 -24 183 8 z"},"j":{"x_min":0,"x_max":242,"ha":242,"o":"m 159 635 q 183 635 196 620 q 210 604 210 581 q 210 555 194 534 q 177 514 151 514 q 127 514 112 535 q 96 556 103 587 q 108 608 122 622 q 137 635 159 635 z m 28 455 q 55 455 80 448 q 104 442 124 431 q 143 420 155 406 q 167 392 168 377 q 145 305 118 224 q 91 142 51 55 q 65 54 78 52 q 90 51 98 49 q 119 44 127 34 q 135 25 132 16 q 130 8 119 4 q 108 0 90 5 q 78 9 62 10 q 47 11 30 12 q -21 -87 -92 -142 q -164 -196 -240 -196 q -291 -196 -320 -172 q -350 -149 -350 -111 q -350 -80 -330 -51 q -310 -22 -274 0 q -239 23 -192 38 q -145 52 -91 56 q -59 156 -32 256 q -6 356 28 455 z m -108 8 q -153 8 -186 -7 q -218 -22 -238 -44 q -259 -65 -268 -88 q -278 -111 -278 -127 q -278 -136 -274 -142 q -270 -147 -259 -147 q -239 -147 -216 -130 q -192 -112 -170 -88 q -149 -63 -132 -36 q -115 -10 -108 8 z"},"i":{"x_min":0,"x_max":305,"ha":305,"o":"m 166 635 q 190 635 204 620 q 217 604 217 581 q 217 555 200 534 q 184 514 158 514 q 134 514 118 535 q 103 556 110 587 q 115 608 130 622 q 144 635 166 635 z m 151 133 q 177 133 212 162 q 246 191 272 236 l 315 226 q 272 154 212 114 q 152 74 85 74 q 24 74 -8 105 q -39 136 -39 186 q -39 211 -32 240 q -24 270 -12 304 q 0 337 14 375 q 29 413 44 455 q 71 455 96 448 q 120 442 140 431 q 159 420 171 406 q 183 392 184 377 q 169 347 152 305 q 136 263 127 225 q 118 187 122 160 q 126 133 151 133 z"},"y":{"x_min":0,"x_max":568,"ha":568,"o":"m 353 455 q 380 455 404 448 q 429 442 448 431 q 468 420 480 406 q 492 392 493 377 q 470 305 443 224 q 416 142 376 55 q 390 54 402 52 q 415 51 423 49 q 444 44 452 34 q 460 25 458 16 q 455 8 444 4 q 433 0 415 5 q 403 9 388 10 q 372 11 355 12 q 304 -87 232 -142 q 161 -196 85 -196 q 34 -196 4 -172 q -25 -149 -25 -111 q -25 -80 -5 -51 q 15 -22 50 0 q 86 23 133 38 q 180 52 234 56 q 243 85 252 114 q 260 142 268 171 q 232 129 187 102 q 142 74 84 74 q 24 74 -8 105 q -39 136 -39 186 q -39 211 -32 240 q -24 270 -12 304 q 0 337 14 375 q 29 413 44 455 q 71 455 96 448 q 120 442 140 431 q 159 420 171 406 q 183 392 184 377 q 169 347 152 305 q 135 263 126 225 q 116 187 117 160 q 118 133 139 133 q 157 133 182 154 q 206 174 231 204 q 256 235 279 270 q 302 306 315 335 q 324 365 333 395 q 342 425 353 455 z m 217 8 q 185 8 152 -4 q 118 -15 90 -34 q 63 -52 46 -75 q 28 -98 28 -120 q 28 -147 54 -147 q 72 -147 96 -133 q 120 -119 143 -97 q 166 -75 186 -48 q 206 -20 217 8 z"},"@":{"x_min":0,"x_max":985,"ha":985,"o":"m 760 401 q 751 387 739 366 q 727 345 716 322 q 704 298 696 274 q 687 251 684 232 q 682 214 688 202 q 695 190 714 190 q 742 190 770 215 q 799 240 822 280 q 845 319 860 368 q 874 417 874 465 q 874 559 816 610 q 758 661 652 661 q 590 661 531 643 q 472 625 420 593 q 369 561 326 516 q 283 471 252 418 q 220 365 203 304 q 186 244 186 181 q 186 74 234 14 q 282 -45 363 -45 q 426 -45 471 -10 q 516 25 530 85 q 568 85 593 70 q 618 54 618 30 q 618 9 598 -10 q 579 -29 545 -43 q 511 -57 466 -66 q 421 -74 371 -74 q 295 -74 234 -54 q 172 -34 129 4 q 86 41 63 94 q 40 148 40 216 q 40 281 61 343 q 82 405 120 460 q 158 515 210 560 q 263 606 326 640 q 390 673 462 692 q 533 710 608 710 q 682 710 740 692 q 799 674 840 640 q 880 605 902 555 q 923 505 923 442 q 923 379 902 322 q 882 264 848 220 q 814 176 770 150 q 725 124 677 124 q 632 124 606 147 q 579 170 579 210 q 557 185 523 171 q 489 157 451 157 q 396 157 364 186 q 331 214 331 263 q 331 302 351 336 q 371 370 404 396 q 437 421 480 436 q 522 451 567 451 q 600 451 633 442 l 639 458 q 662 458 684 453 q 705 448 722 440 q 738 433 748 422 q 759 412 760 401 z m 624 414 q 597 414 567 397 q 537 380 511 354 q 485 329 468 300 q 451 270 451 244 q 451 203 488 203 q 511 203 533 219 q 555 235 568 260 z"},".":{"x_min":0,"x_max":295,"ha":295,"o":"m 152 237 q 181 237 198 218 q 215 198 215 170 q 215 139 194 114 q 174 88 142 88 q 127 88 114 95 q 101 102 92 114 q 84 126 81 142 q 78 159 83 178 q 89 204 107 220 q 125 237 152 237 z"},"p":{"x_min":0,"x_max":564,"ha":564,"o":"m -140 -22 l 50 455 q 69 455 90 450 q 110 446 128 438 q 145 429 158 417 q 171 405 176 388 q 208 420 249 442 q 290 463 340 463 q 406 463 445 425 q 484 387 484 324 q 484 277 462 234 q 440 192 403 160 q 366 127 317 108 q 268 88 214 88 q 171 88 138 100 q 106 112 92 135 l 26 -52 q 13 -88 2 -118 q -8 -149 -16 -171 q -77 -171 -108 -130 q -140 -88 -140 -22 z m 110 184 q 118 170 134 160 q 151 150 174 150 q 204 150 234 167 q 264 184 288 212 q 312 239 327 273 q 342 307 342 341 q 342 400 296 400 q 271 400 246 382 q 220 365 198 338 q 175 312 156 282 q 137 252 125 228 z"},"X":{"x_min":0,"x_max":2094,"ha":2094,"o":"m 2298 1152 q 2330 1158 2353 1158 q 2397 1158 2416 1142 q 2436 1127 2439 1108 q 2442 1089 2434 1074 q 2425 1058 2413 1058 q 2407 1058 2397 1062 q 2387 1066 2373 1072 q 2359 1077 2341 1081 q 2323 1085 2300 1085 q 2285 1085 2268 1082 q 2251 1080 2231 1074 q 2160 1053 2099 997 q 2038 941 1982 863 q 1927 785 1876 690 q 1825 595 1774 496 q 1786 422 1796 356 q 1805 290 1820 240 q 1835 191 1860 162 q 1884 133 1925 133 q 1965 133 2002 160 q 2039 187 2068 236 l 2111 226 q 2062 140 1996 96 q 1929 51 1851 51 q 1806 51 1772 66 q 1739 81 1715 108 q 1691 135 1674 172 q 1658 210 1646 255 q 1602 178 1555 108 q 1508 39 1456 -16 q 1403 -72 1344 -110 q 1285 -148 1218 -162 q 1188 -168 1167 -168 q 1132 -168 1114 -156 q 1097 -145 1091 -129 q 1035 -179 968 -219 q 902 -259 828 -288 q 754 -316 674 -332 q 595 -347 512 -347 q 392 -347 297 -314 q 202 -281 136 -218 q 70 -155 35 -64 q 0 28 0 143 q 0 273 43 398 q 86 524 164 636 q 241 748 347 842 q 453 937 580 1006 q 706 1075 847 1114 q 988 1152 1135 1152 q 1246 1152 1331 1130 q 1416 1109 1480 1070 q 1545 1032 1590 980 q 1636 929 1668 868 q 1700 808 1720 742 q 1740 676 1754 610 q 1807 707 1866 798 q 1924 888 1991 962 q 2058 1035 2134 1086 q 2210 1136 2298 1152 z m 1321 330 q 1321 218 1274 115 q 1228 12 1146 -76 q 1161 -82 1180 -88 q 1200 -95 1225 -95 q 1238 -95 1252 -92 q 1267 -90 1283 -84 q 1330 -66 1374 -24 q 1417 18 1459 78 q 1501 137 1542 210 q 1583 284 1625 364 q 1613 442 1602 527 q 1592 612 1573 694 q 1554 777 1522 852 q 1491 926 1436 982 q 1382 1039 1300 1072 q 1218 1106 1098 1106 q 974 1106 856 1070 q 737 1033 631 968 q 525 904 436 814 q 347 725 282 620 q 218 514 182 396 q 146 277 146 154 q 146 47 174 -37 q 202 -121 254 -180 q 307 -238 382 -269 q 458 -300 554 -300 q 639 -300 722 -276 q 805 -253 880 -211 q 955 -169 1019 -112 q 1083 -54 1130 14 q 1176 81 1202 156 q 1229 231 1229 307 q 1229 425 1167 490 q 1105 554 991 554 q 985 452 946 360 q 908 267 848 196 q 789 126 714 84 q 639 43 559 43 q 485 43 447 80 q 409 118 409 191 q 409 247 430 302 q 452 356 490 406 q 527 456 579 500 q 631 543 692 576 q 753 608 821 628 q 889 649 958 653 q 953 693 943 732 q 933 772 912 804 q 891 837 856 858 q 821 880 766 885 q 766 905 786 920 q 806 935 835 935 q 858 935 884 922 q 909 909 932 876 q 954 844 971 790 q 988 736 992 654 q 1069 654 1130 632 q 1191 609 1234 568 q 1276 526 1298 466 q 1321 406 1321 330 z m 461 179 q 461 80 568 80 q 637 80 704 120 q 772 161 826 228 q 881 295 916 382 q 952 468 958 560 q 901 560 842 544 q 783 528 728 500 q 672 473 624 436 q 575 398 539 356 q 503 314 482 268 q 461 223 461 179 z"},"*":{"x_min":0,"x_max":365,"ha":365,"o":"m 125 644 l 171 605 l 204 697 q 212 703 220 703 q 230 703 239 696 q 248 690 253 679 l 230 601 l 316 631 q 330 609 323 590 q 316 571 290 563 l 238 546 l 317 478 q 305 455 285 455 q 270 455 249 471 l 203 508 l 170 395 q 139 400 124 418 q 109 435 117 457 l 138 515 l 48 486 q 23 528 78 547 l 131 566 l 52 630 q 68 658 92 658 q 108 658 125 644 z"},"Y":{"x_min":0,"x_max":2112,"ha":2112,"o":"m 1863 504 q 1881 546 1904 600 q 1928 654 1956 712 q 1985 769 2020 824 q 2055 880 2096 924 q 2137 967 2185 994 q 2233 1021 2288 1021 q 2314 1021 2330 1014 q 2345 1007 2353 993 l 2001 534 q 1961 430 1928 320 q 1896 211 1862 108 q 1827 5 1786 -86 q 1744 -178 1686 -246 q 1629 -315 1550 -354 q 1472 -394 1362 -394 q 1283 -394 1220 -373 q 1158 -352 1116 -314 q 1075 -276 1058 -224 q 1040 -172 1050 -109 q 1058 -64 1078 -28 q 1097 8 1128 32 q 1158 57 1198 70 q 1237 83 1284 82 q 1314 84 1343 78 q 1372 71 1394 58 q 1416 45 1430 28 q 1443 12 1443 -6 q 1443 -27 1428 -44 q 1412 -60 1389 -60 q 1377 -60 1363 -54 q 1361 -11 1337 13 q 1313 37 1271 38 q 1198 36 1150 0 q 1103 -36 1092 -98 q 1085 -137 1096 -170 q 1107 -202 1132 -226 q 1158 -249 1197 -262 q 1236 -276 1284 -276 q 1357 -276 1417 -246 q 1477 -216 1526 -164 q 1576 -113 1618 -44 q 1659 24 1696 102 q 1733 179 1767 262 q 1801 344 1836 423 q 1775 373 1723 337 q 1671 301 1624 278 q 1576 255 1533 244 q 1490 233 1447 233 q 1375 233 1324 261 q 1274 289 1250 340 q 1224 274 1178 211 q 1133 148 1072 92 q 1012 37 938 -9 q 865 -55 784 -88 q 703 -122 616 -140 q 530 -159 442 -159 q 336 -159 254 -132 q 172 -105 116 -58 q 59 -11 30 54 q 0 119 0 194 q 0 263 25 339 q 50 415 99 491 q 148 567 220 642 q 293 716 389 782 q 485 848 603 904 q 721 959 860 998 q 843 1044 814 1098 q 785 1153 746 1200 q 706 1246 657 1278 q 608 1309 552 1309 q 517 1309 479 1294 q 479 1341 506 1362 q 532 1383 565 1383 q 606 1383 643 1364 q 680 1345 712 1314 q 745 1283 773 1244 q 801 1204 824 1162 q 847 1120 864 1080 q 882 1039 893 1007 q 1021 1040 1160 1056 q 1300 1073 1449 1073 q 1640 1073 1838 1046 l 1897 1040 q 1834 989 1772 928 q 1710 868 1654 804 q 1599 741 1552 677 q 1504 613 1470 555 q 1435 497 1416 448 q 1396 399 1396 366 q 1396 324 1424 302 q 1452 281 1497 281 q 1535 281 1580 297 q 1624 313 1672 342 q 1720 372 1768 413 q 1817 454 1863 504 z m 943 765 q 1080 765 1164 714 q 1249 663 1272 566 q 1309 631 1373 690 q 1437 749 1512 804 q 1586 858 1662 910 q 1739 962 1801 1014 q 1719 1026 1638 1032 q 1557 1037 1477 1037 q 1323 1037 1180 1016 q 1038 996 910 955 q 937 862 943 765 z m 943 671 q 937 569 898 476 q 860 384 800 314 q 741 243 666 202 q 591 160 511 160 q 437 160 399 197 q 361 234 361 305 q 361 360 384 416 q 406 471 444 522 q 483 573 536 618 q 589 662 650 695 q 711 728 778 746 q 844 765 910 766 q 904 849 878 944 q 698 884 562 794 q 427 704 336 602 q 246 499 201 392 q 156 286 156 192 q 156 129 177 74 q 198 20 240 -20 q 281 -59 343 -82 q 405 -104 488 -104 q 573 -104 658 -80 q 742 -57 820 -16 q 898 24 965 79 q 1032 134 1082 197 q 1131 260 1159 328 q 1187 397 1187 465 q 1187 565 1124 618 q 1061 671 943 671 z m 413 296 q 413 197 520 197 q 589 197 656 238 q 724 278 778 345 q 833 412 868 498 q 904 585 910 677 q 853 677 794 661 q 735 645 680 618 q 624 590 576 552 q 527 515 491 473 q 455 431 434 386 q 413 340 413 296 z"},"c":{"x_min":0,"x_max":451,"ha":451,"o":"m 461 226 q 440 192 410 164 q 380 136 343 116 q 306 97 264 86 q 223 75 179 75 q 131 75 91 88 q 51 101 22 124 q -7 148 -23 180 q -39 212 -39 251 q -39 293 -20 330 q -2 367 30 394 q 63 421 106 437 q 149 453 198 453 q 267 453 308 424 q 349 394 349 345 q 349 326 342 309 q 336 292 324 280 q 312 267 296 260 q 281 253 263 253 q 239 253 224 266 q 209 278 212 297 q 224 308 234 326 q 244 344 248 362 q 252 379 246 392 q 241 405 222 405 q 203 405 184 392 q 164 378 148 356 q 133 335 124 308 q 114 281 114 254 q 114 201 149 168 q 184 136 241 136 q 267 136 293 144 q 319 151 342 164 q 366 177 386 196 q 405 214 418 236 z"},"!":{"x_min":0,"x_max":431,"ha":431,"o":"m 413 738 l 197 281 q 166 277 156 304 q 145 331 156 384 q 167 435 183 499 q 199 563 217 628 q 235 693 254 754 q 273 815 289 861 q 364 861 398 829 q 433 797 413 738 z m 136 240 q 165 240 182 220 q 199 201 199 173 q 199 142 178 116 q 158 91 126 91 q 111 91 98 98 q 85 105 76 117 q 68 129 65 146 q 62 162 67 181 q 73 207 91 224 q 109 240 136 240 z"},"/":{"x_min":0,"x_max":372,"ha":372,"o":"m 486 976 l 80 0 q 49 -4 38 22 q 27 49 38 99 q 44 125 60 177 q 75 229 97 298 q 119 366 146 445 q 172 524 200 606 q 228 687 256 766 q 283 844 306 910 q 329 977 346 1026 q 364 1076 372 1099 q 447 1099 476 1067 q 506 1035 486 976 z"},"[":{"x_min":0,"x_max":493,"ha":493,"o":"m 390 74 q 397 42 380 20 q 363 -2 325 -1 l 118 9 l 118 10 q 95 16 82 44 q 69 72 80 126 q 85 149 98 194 q 112 240 130 300 q 149 360 172 430 q 195 500 220 572 q 244 645 268 715 q 291 785 312 845 q 332 905 348 950 q 364 996 372 1019 q 412 1025 442 1028 q 471 1031 500 1034 q 530 1038 563 1042 q 596 1047 643 1054 q 650 1022 633 1000 q 616 978 578 979 l 512 982 l 151 43 q 182 47 208 50 q 233 53 260 56 q 287 59 318 63 q 348 67 390 74 z"},"6":{"x_min":0,"x_max":581,"ha":581,"o":"m 516 634 q 521 618 516 604 q 510 589 498 578 q 485 566 468 560 q 450 553 430 553 q 408 553 387 562 q 401 619 385 647 q 369 675 329 670 q 264 662 220 576 q 177 491 156 334 q 194 397 248 428 q 303 460 369 460 q 448 460 494 418 q 541 376 541 304 q 541 256 519 216 q 497 175 460 146 q 422 117 372 101 q 321 85 263 85 q 149 85 84 147 q 19 209 19 326 q 19 402 46 470 q 74 538 122 590 q 170 641 234 671 q 297 701 369 701 q 426 701 466 683 q 507 665 516 634 z m 406 317 q 406 363 388 390 q 369 416 333 416 q 307 416 282 402 q 258 389 238 365 q 219 341 208 308 q 196 276 196 238 q 196 190 216 160 q 235 129 270 129 q 295 129 319 144 q 343 159 362 185 q 382 211 394 245 q 406 279 406 317 z"},"r":{"x_min":0,"x_max":444,"ha":444,"o":"m 129 496 q 149 489 184 480 q 219 470 254 456 q 289 443 316 424 q 342 406 345 381 q 335 362 320 334 q 304 307 289 276 q 274 246 261 216 q 248 187 242 163 q 237 139 240 124 q 244 109 263 109 q 279 109 300 120 q 320 132 340 150 q 360 168 379 190 q 398 213 411 236 l 454 226 q 433 191 408 161 q 383 131 355 110 q 327 88 297 76 q 267 64 235 64 q 208 64 180 74 q 153 83 133 100 q 113 118 104 144 q 96 169 105 202 l 193 432 l 116 459 q 105 429 89 391 q 73 353 56 316 q 39 278 22 246 q 4 213 -11 194 l -45 216 q -33 234 -17 265 q -1 296 16 332 q 33 369 49 406 q 65 443 77 473 q 47 486 38 504 q 29 521 34 538 q 40 554 58 566 q 76 577 101 577 q 125 577 151 564 z"},"2":{"x_min":0,"x_max":530,"ha":530,"o":"m 481 556 q 481 507 454 452 q 428 398 379 345 q 330 292 260 242 q 189 192 101 152 q 143 156 190 161 q 236 166 278 178 q 321 189 355 208 q 389 228 404 262 q 424 262 438 249 q 453 236 460 216 q 468 197 468 174 q 468 152 458 132 q 447 113 426 100 q 405 87 371 87 q 348 87 310 93 q 273 99 230 106 q 187 112 144 118 q 101 124 66 124 q 54 124 43 123 q 32 122 23 120 q 6 115 -2 126 q -11 138 0 152 q 78 209 144 273 q 210 337 258 400 q 305 462 332 517 q 359 572 359 611 q 359 669 301 669 q 273 669 247 655 q 221 641 200 617 q 179 593 164 560 q 150 528 145 490 q 129 491 114 498 q 98 506 85 518 q 72 530 64 546 q 56 561 56 579 q 56 607 76 630 q 96 653 128 670 q 161 686 202 695 q 243 704 285 704 q 323 704 358 696 q 394 688 421 670 q 448 652 464 624 q 481 596 481 556 z"},"{":{"x_min":0,"x_max":457,"ha":457,"o":"m 274 562 q 322 544 338 518 q 353 492 348 460 q 342 428 322 390 q 302 353 280 313 q 259 273 242 231 q 225 189 225 147 q 225 134 228 118 q 231 103 241 89 q 251 75 270 64 q 290 53 322 48 q 341 46 340 30 q 340 14 326 6 q 294 -14 259 -24 q 224 -34 190 -34 q 162 -34 136 -27 q 111 -20 92 -5 q 72 10 61 32 q 50 54 50 84 q 50 121 66 160 q 82 200 106 240 q 130 280 158 318 q 186 357 210 392 q 233 426 248 455 q 262 484 260 505 q 258 526 235 538 q 212 549 159 548 q 138 547 128 558 q 118 569 124 582 q 131 596 158 608 q 185 619 237 619 q 298 619 332 636 q 366 654 382 684 q 397 714 398 754 q 400 793 396 838 q 393 883 390 930 q 386 977 390 1022 q 395 1067 412 1106 q 430 1146 470 1176 q 509 1206 575 1224 q 641 1241 742 1241 q 753 1243 760 1236 q 766 1228 763 1218 q 760 1209 746 1201 q 732 1193 702 1193 q 656 1193 629 1172 q 602 1150 586 1114 q 570 1077 561 1029 q 552 981 542 928 q 531 875 516 820 q 500 766 470 717 q 441 668 394 628 q 347 587 274 562 z"},"9":{"x_min":0,"x_max":547,"ha":547,"o":"m 44 152 q 39 168 44 182 q 50 197 62 208 q 75 220 93 226 q 111 233 130 233 q 152 233 173 224 q 159 168 175 140 q 191 111 233 116 q 296 124 340 204 q 383 284 404 442 q 366 380 313 353 q 260 326 197 326 q 113 326 66 368 q 19 410 19 481 q 19 528 40 568 q 61 609 98 638 q 136 668 186 684 q 237 701 297 701 q 413 701 477 638 q 541 574 541 459 q 541 383 513 315 q 485 247 437 196 q 389 145 326 115 q 262 85 191 85 q 134 85 94 104 q 53 122 44 152 z m 154 472 q 154 422 173 396 q 192 370 230 370 q 260 370 289 386 q 318 401 342 426 q 365 452 380 484 q 394 516 394 550 q 394 573 387 594 q 380 614 366 630 q 353 646 335 655 q 317 664 294 664 q 264 664 238 648 q 213 633 194 606 q 176 580 165 545 q 154 510 154 472 z"}," ":{"x_min":0,"x_max":250,"ha":250,"o":""},"I":{"x_min":0,"x_max":1881,"ha":1881,"o":"m 2132 1202 q 2112 1191 2096 1177 q 2081 1163 2062 1142 q 1991 1063 1940 967 q 1888 871 1848 768 q 1807 664 1772 558 q 1737 452 1699 354 q 1661 255 1614 168 q 1568 82 1504 18 q 1440 -46 1354 -83 q 1268 -120 1150 -120 q 1047 -120 970 -92 q 892 -64 845 -13 q 792 -33 730 -44 q 667 -55 596 -55 q 446 -55 334 -8 q 222 39 148 115 q 74 191 37 288 q 0 384 0 484 q 0 569 26 651 q 53 733 106 800 q 159 868 238 916 q 317 963 421 980 q 454 1024 500 1062 q 547 1099 608 1127 q 670 1155 746 1170 q 823 1186 916 1186 q 1039 1186 1128 1155 q 1182 1183 1253 1200 q 1324 1216 1417 1216 q 1476 1216 1534 1210 q 1593 1204 1650 1196 q 1706 1189 1760 1182 q 1815 1176 1867 1176 q 1935 1176 1990 1190 q 2044 1204 2103 1235 q 2134 1238 2132 1202 z m 819 20 q 793 60 786 107 q 778 154 789 203 q 805 275 849 316 q 893 356 950 356 q 1001 356 1030 324 q 1059 291 1059 234 q 1059 168 1020 112 q 981 57 912 18 q 942 0 982 -10 q 1021 -20 1069 -20 q 1147 -20 1212 6 q 1276 32 1330 78 q 1384 124 1428 186 q 1473 249 1512 322 q 1550 394 1584 473 q 1618 552 1650 631 q 1681 710 1713 786 q 1745 863 1779 930 q 1813 996 1852 1050 q 1890 1103 1936 1138 q 1856 1139 1798 1144 q 1740 1149 1692 1155 q 1645 1161 1603 1166 q 1561 1170 1513 1170 q 1411 1170 1336 1147 q 1260 1124 1209 1087 q 1158 1050 1129 1002 q 1100 955 1090 905 q 1081 855 1090 808 q 1098 760 1122 723 q 1145 686 1182 663 q 1219 640 1266 640 q 1338 640 1391 666 q 1444 692 1478 732 q 1513 772 1530 820 q 1546 867 1546 910 q 1546 950 1532 980 q 1519 1011 1493 1023 q 1493 1049 1510 1062 q 1528 1075 1551 1075 q 1584 1075 1602 1042 q 1620 1010 1620 960 q 1620 925 1610 884 q 1601 844 1582 804 q 1562 764 1532 727 q 1501 690 1458 662 q 1416 634 1362 617 q 1308 600 1240 600 q 1170 600 1114 627 q 1058 654 1020 698 q 983 743 966 800 q 949 856 954 914 q 960 973 992 1029 q 1023 1085 1082 1127 q 1013 1145 929 1145 q 858 1145 798 1134 q 737 1122 688 1101 q 638 1080 598 1051 q 559 1022 530 988 q 628 988 702 964 q 776 939 827 899 q 878 859 906 808 q 934 758 940 705 q 946 652 931 601 q 916 550 881 510 q 846 471 791 446 q 736 422 662 422 q 562 422 492 466 q 421 510 383 579 q 345 648 342 732 q 338 817 373 898 q 316 871 274 828 q 231 785 203 732 q 175 679 161 619 q 147 559 147 496 q 147 403 178 312 q 208 220 268 148 q 329 75 419 30 q 509 -14 627 -14 q 681 -14 728 -5 q 776 4 819 20 z m 490 933 q 460 883 448 828 q 435 774 438 722 q 440 669 458 622 q 476 575 508 540 q 539 504 584 483 q 628 462 684 462 q 740 462 782 482 q 823 503 850 536 q 876 570 886 612 q 897 655 892 700 q 886 745 864 788 q 841 830 800 864 q 760 897 701 918 q 642 938 564 938 q 544 938 526 936 q 507 935 490 933 z m 876 46 q 942 82 980 134 q 1019 185 1019 242 q 1019 280 1001 300 q 983 321 950 321 q 908 321 876 290 q 843 259 833 212 q 823 161 834 119 q 846 77 876 46 z"},"H":{"x_min":0,"x_max":2107,"ha":2107,"o":"m 1009 1204 q 1009 1129 1088 1091 q 1167 1053 1321 1053 q 1397 1053 1470 1061 q 1544 1069 1606 1080 q 1667 1090 1712 1099 q 1757 1108 1776 1109 q 1800 1111 1815 1104 q 1830 1097 1834 1086 q 1839 1076 1833 1065 q 1827 1054 1810 1049 q 1734 1034 1678 985 q 1622 936 1578 864 q 1535 792 1500 702 q 1465 613 1430 516 q 1471 492 1510 472 q 1548 453 1586 440 q 1624 427 1662 422 q 1700 416 1739 422 q 1764 503 1804 586 q 1844 670 1894 748 q 1945 827 2002 896 q 2059 965 2118 1016 q 2176 1068 2233 1098 q 2290 1127 2339 1127 q 2381 1127 2411 1108 q 2441 1088 2441 1060 q 2441 1024 2373 1006 q 2370 1043 2356 1063 q 2343 1083 2321 1083 q 2296 1083 2264 1057 q 2232 1031 2197 986 q 2162 941 2126 880 q 2089 820 2054 752 q 2020 684 1990 612 q 1959 539 1936 470 q 1913 400 1900 337 q 1887 274 1887 225 q 1887 177 1901 155 q 1915 133 1946 133 q 1982 133 2018 160 q 2055 188 2083 236 l 2126 226 q 2076 139 2010 95 q 1943 51 1863 51 q 1783 51 1745 95 q 1707 139 1707 230 q 1707 266 1712 304 q 1718 341 1728 381 q 1714 379 1700 378 q 1686 376 1672 376 q 1607 376 1542 398 q 1477 420 1407 453 q 1377 370 1343 287 q 1309 204 1266 128 q 1224 52 1171 -13 q 1118 -78 1050 -126 q 981 -174 894 -202 q 807 -229 698 -229 q 595 -229 510 -204 q 426 -180 366 -136 q 305 -92 272 -30 q 239 31 239 106 q 239 138 245 168 q 190 189 144 228 q 99 266 67 318 q 35 371 18 436 q 0 502 0 577 q 0 697 44 798 q 89 899 168 972 q 247 1046 356 1087 q 466 1128 596 1128 q 710 1128 806 1096 q 901 1064 971 1006 q 1041 948 1082 866 q 1123 785 1128 685 q 1173 665 1214 642 q 1255 620 1294 597 q 1326 665 1359 728 q 1392 791 1430 846 q 1468 902 1512 947 q 1555 992 1606 1023 q 1500 998 1415 986 q 1330 973 1262 973 q 1119 973 1044 1026 q 969 1080 969 1182 q 969 1225 982 1261 q 996 1297 1020 1324 q 1043 1350 1075 1364 q 1107 1379 1145 1379 q 1178 1379 1208 1368 q 1237 1357 1259 1338 q 1281 1318 1294 1292 q 1307 1267 1307 1238 q 1307 1214 1298 1194 q 1289 1173 1274 1158 q 1259 1143 1238 1135 q 1218 1127 1195 1128 q 1160 1128 1137 1146 q 1114 1164 1114 1191 q 1114 1212 1128 1227 q 1142 1242 1162 1242 q 1172 1210 1187 1196 q 1202 1183 1225 1183 q 1243 1183 1255 1200 q 1267 1216 1267 1239 q 1267 1260 1258 1278 q 1248 1296 1232 1310 q 1215 1323 1193 1331 q 1171 1339 1146 1339 q 1118 1339 1093 1328 q 1068 1318 1049 1300 q 1030 1281 1020 1256 q 1009 1232 1009 1204 z m 290 155 q 289 148 288 141 q 288 134 288 126 q 287 65 312 14 q 338 -38 384 -75 q 429 -112 492 -132 q 555 -153 630 -153 q 717 -153 787 -126 q 857 -98 915 -50 q 973 -2 1020 64 q 1068 129 1109 204 q 1150 279 1187 361 q 1224 443 1261 525 q 1229 541 1195 557 q 1161 573 1125 588 q 1115 515 1086 453 q 1056 391 1010 347 q 965 303 906 278 q 847 253 779 253 q 724 253 678 270 q 631 286 598 316 q 564 347 546 390 q 527 433 527 486 q 527 545 550 594 q 572 642 614 676 q 657 711 718 730 q 778 750 854 750 q 916 750 974 738 q 1031 725 1085 703 q 1075 787 1036 856 q 996 925 934 975 q 872 1025 790 1052 q 709 1080 615 1080 q 505 1080 413 1042 q 321 1005 255 938 q 189 870 152 776 q 115 682 115 570 q 115 510 126 457 q 136 404 155 360 q 174 315 202 280 q 229 246 262 223 q 286 282 331 319 q 376 356 433 356 q 460 356 482 348 q 504 339 520 324 q 535 309 542 289 q 550 269 546 246 q 538 199 492 172 q 445 146 370 146 q 328 146 290 155 z m 862 645 q 738 645 670 594 q 603 543 603 458 q 603 420 617 390 q 631 359 656 338 q 680 316 714 304 q 749 293 791 293 q 850 293 902 316 q 953 340 992 381 q 1031 422 1056 478 q 1081 535 1087 602 q 1033 622 978 634 q 922 645 862 645 z m 301 202 q 339 186 383 186 q 433 186 467 205 q 501 224 506 254 q 508 268 504 279 q 499 290 489 298 q 479 307 464 312 q 450 316 433 316 q 388 316 353 284 q 318 253 301 202 z"},"4":{"x_min":0,"x_max":562,"ha":562,"o":"m 284 593 l 102 323 l 336 323 l 463 695 q 492 694 504 682 q 516 669 512 637 l 462 323 l 526 323 q 533 289 516 278 q 499 268 454 269 l 424 83 q 349 83 314 120 q 280 158 300 216 l 318 269 l 119 269 q 107 269 94 270 q 82 271 71 276 q 60 281 52 292 q 43 303 40 323 q 53 353 68 392 q 84 432 98 480 q 112 527 124 581 q 135 635 141 693 q 222 700 258 670 q 295 641 284 593 z"},"~":{"x_min":0,"x_max":545,"ha":545,"o":"m 345 378 q 415 378 465 418 q 473 392 468 368 q 463 343 448 324 q 433 306 408 294 q 384 283 353 283 q 325 283 295 292 q 265 300 234 310 q 204 319 174 328 q 145 336 119 336 q 83 336 54 317 q 41 312 41 322 q 42 354 76 374 q 111 394 165 394 q 185 394 208 392 q 231 389 255 386 q 279 383 302 380 q 325 378 345 378 z"},"D":{"x_min":0,"x_max":2214,"ha":2214,"o":"m 172 260 q 100 303 61 373 q 22 443 22 537 q 22 617 50 692 q 79 766 132 834 q 184 903 258 963 q 333 1023 426 1072 q 518 1122 627 1160 q 736 1198 856 1222 q 844 1252 826 1280 q 809 1308 786 1330 q 763 1351 734 1364 q 706 1378 671 1378 q 626 1378 577 1356 q 568 1374 572 1390 q 576 1407 588 1419 q 600 1431 617 1438 q 634 1445 650 1445 q 700 1445 740 1425 q 780 1405 810 1374 q 841 1342 863 1304 q 885 1266 900 1230 q 994 1247 1093 1254 q 1192 1261 1295 1258 q 1452 1253 1582 1226 q 1713 1199 1816 1151 q 1883 1198 1946 1222 q 2009 1247 2069 1243 q 2112 1241 2138 1226 q 2165 1210 2165 1188 q 2165 1171 2149 1160 q 2133 1149 2110 1149 q 2109 1171 2096 1182 q 2082 1194 2050 1196 q 2005 1198 1961 1178 q 1917 1159 1871 1123 q 2005 1048 2076 934 q 2146 821 2146 673 q 2146 587 2122 504 q 2098 421 2055 348 q 2012 274 1952 212 q 1893 150 1823 104 q 1753 59 1674 34 q 1595 9 1513 9 q 1399 9 1338 56 q 1277 104 1277 187 q 1277 207 1282 230 q 1286 252 1296 271 q 1305 290 1322 302 q 1338 315 1362 315 q 1385 315 1406 302 q 1426 289 1436 265 q 1340 233 1340 161 q 1340 119 1371 95 q 1402 71 1464 71 q 1527 71 1590 97 q 1652 123 1710 168 q 1767 214 1816 276 q 1865 338 1902 410 q 1938 483 1958 562 q 1979 641 1979 720 q 1979 833 1936 921 q 1894 1009 1813 1072 q 1748 1009 1680 923 q 1612 837 1540 738 q 1468 640 1392 535 q 1315 430 1233 330 q 1151 231 1064 142 q 976 52 882 -15 q 787 -82 686 -121 q 585 -160 475 -160 q 375 -160 299 -127 q 223 -94 181 -37 q 139 20 134 96 q 130 173 172 260 z m 207 241 q 180 183 180 129 q 180 75 206 33 q 231 -9 280 -34 q 329 -60 399 -60 q 482 -60 568 -24 q 653 13 740 76 q 827 139 914 222 q 1002 306 1089 400 q 1176 494 1262 593 q 1349 692 1434 786 q 1518 880 1600 964 q 1682 1047 1760 1109 q 1676 1159 1565 1186 q 1454 1214 1317 1219 q 1211 1223 1110 1213 q 1010 1203 915 1182 q 928 1132 932 1078 q 936 1025 931 968 q 1020 950 1067 894 q 1114 837 1114 747 q 1114 679 1086 612 q 1059 544 1010 484 q 962 423 896 371 q 830 319 752 282 q 675 244 589 222 q 503 201 415 201 q 296 201 207 241 z m 474 394 q 396 397 354 440 q 311 484 311 561 q 311 614 332 666 q 352 717 388 763 q 425 809 475 848 q 525 887 584 916 q 643 944 708 960 q 773 976 840 976 q 854 976 866 976 q 879 975 890 974 q 897 1079 873 1172 q 718 1133 586 1067 q 453 1001 356 916 q 259 831 204 731 q 149 631 149 524 q 149 396 228 326 q 307 256 451 256 q 524 256 596 274 q 668 292 734 323 q 799 354 856 396 q 912 439 954 488 q 996 538 1020 592 q 1043 647 1043 701 q 1043 765 1010 809 q 977 853 917 873 q 901 792 864 708 q 828 623 772 553 q 717 483 642 438 q 568 394 474 394 z m 878 883 q 847 889 809 889 q 724 889 644 860 q 564 832 502 786 q 439 739 401 679 q 363 619 363 556 q 363 498 396 465 q 429 432 489 430 q 566 433 630 472 q 695 511 745 574 q 795 637 828 718 q 862 798 878 883 z"},"^":{"x_min":0,"x_max":274,"ha":274,"o":"m 11 583 l 169 658 q 174 660 178 661 q 181 662 185 662 q 193 662 202 650 l 262 571 q 265 564 262 556 q 260 548 254 541 q 247 534 238 530 q 230 526 221 526 q 205 526 197 537 q 189 548 184 564 q 180 581 176 600 q 173 618 167 633 l 79 540 q 67 531 53 531 q 35 531 21 546 q 7 560 11 583 z"},"0":{"x_min":0,"x_max":574,"ha":574,"o":"m 308 699 q 367 699 412 673 q 456 647 486 604 q 515 561 530 508 q 544 454 544 398 q 544 338 527 280 q 510 223 475 177 q 440 131 386 103 q 333 75 261 75 q 198 75 152 96 q 105 118 74 154 q 44 191 30 238 q 15 286 15 337 q 15 400 36 464 q 56 528 94 580 q 133 633 187 666 q 241 699 308 699 z m 309 660 q 275 660 247 627 q 219 594 200 542 q 181 491 170 430 q 160 368 160 311 q 160 272 165 237 q 170 202 181 176 q 192 150 209 134 q 226 119 249 119 q 284 119 312 151 q 339 183 359 234 q 379 284 390 344 q 400 405 400 462 q 400 501 395 536 q 390 572 378 600 q 367 627 350 644 q 333 660 309 660 z"},"F":{"x_min":0,"x_max":2179,"ha":2179,"o":"m 733 -62 q 695 -78 648 -86 q 602 -95 541 -95 q 418 -95 324 -60 q 230 -26 164 32 q 97 91 58 168 q 18 245 6 330 q -7 415 6 503 q 20 591 60 671 q 99 751 164 818 q 228 884 317 927 q 341 996 390 1060 q 438 1123 510 1171 q 581 1219 676 1248 q 770 1276 888 1276 q 952 1276 1004 1267 q 1055 1258 1101 1240 q 1150 1270 1215 1288 q 1280 1306 1364 1306 q 1439 1306 1517 1292 q 1595 1278 1674 1257 q 1754 1236 1834 1211 q 1913 1186 1992 1165 q 2070 1144 2146 1130 q 2223 1116 2295 1116 q 2459 1116 2548 1199 q 2558 1206 2567 1206 q 2578 1206 2582 1196 q 2586 1187 2580 1171 q 2538 1077 2458 1027 q 2378 977 2270 977 q 2206 977 2140 994 q 2075 1012 2013 1045 q 1973 1015 1940 970 q 1907 925 1878 870 q 1849 815 1823 752 q 1797 689 1771 621 q 1830 604 1886 590 q 1943 577 1994 577 q 2052 577 2100 603 q 2149 629 2184 698 q 2201 701 2214 698 q 2226 696 2220 680 q 2188 615 2155 572 q 2122 528 2088 502 q 2055 475 2021 464 q 1987 452 1953 452 q 1898 452 1844 474 q 1789 497 1735 525 q 1703 442 1667 359 q 1631 276 1588 200 q 1544 124 1490 58 q 1437 -8 1369 -56 q 1301 -105 1217 -132 q 1133 -160 1028 -160 q 925 -160 852 -134 q 779 -108 733 -62 z m 1236 730 q 1274 730 1310 743 q 1347 756 1380 778 q 1412 799 1440 828 q 1467 857 1487 889 q 1507 921 1518 954 q 1530 988 1530 1019 q 1530 1046 1520 1070 q 1511 1093 1491 1111 q 1491 1129 1510 1142 q 1528 1154 1546 1154 q 1568 1154 1583 1139 q 1598 1124 1598 1100 q 1598 1035 1570 963 q 1542 891 1490 830 q 1439 769 1368 730 q 1296 690 1209 690 q 1142 690 1091 716 q 1040 743 1006 786 q 973 830 958 886 q 943 942 949 1000 q 955 1058 983 1114 q 1011 1169 1062 1212 q 1024 1224 984 1230 q 944 1235 900 1235 q 809 1235 734 1214 q 660 1193 602 1156 q 544 1120 502 1072 q 461 1023 435 968 q 515 988 596 988 q 688 988 757 964 q 826 939 872 900 q 919 860 944 809 q 968 758 971 705 q 974 652 956 601 q 937 550 898 510 q 858 471 798 446 q 738 422 658 422 q 564 422 493 456 q 422 489 376 544 q 329 599 308 670 q 288 741 294 817 q 230 749 194 658 q 158 567 150 470 q 143 374 164 280 q 185 185 236 111 q 286 37 366 -8 q 447 -54 558 -54 q 601 -54 637 -47 q 673 -40 705 -28 q 677 14 668 64 q 659 113 671 166 q 688 242 734 279 q 780 316 833 316 q 886 316 913 283 q 940 250 940 201 q 940 174 932 144 q 923 113 906 83 q 888 53 862 24 q 835 -4 800 -27 q 829 -43 866 -52 q 903 -60 948 -60 q 1028 -60 1096 -34 q 1164 -7 1222 39 q 1281 85 1332 148 q 1383 210 1429 282 q 1475 354 1518 433 q 1560 512 1602 590 q 1576 601 1552 607 q 1527 613 1502 613 q 1453 613 1411 584 q 1397 586 1388 595 q 1379 604 1389 618 q 1425 642 1464 652 q 1502 662 1544 662 q 1590 662 1636 653 q 1672 719 1710 782 q 1747 844 1788 898 q 1828 952 1872 996 q 1917 1041 1967 1071 q 1900 1100 1838 1133 q 1776 1166 1713 1194 q 1650 1222 1583 1241 q 1516 1260 1440 1260 q 1357 1260 1294 1237 q 1232 1214 1188 1177 q 1144 1140 1118 1092 q 1092 1045 1082 995 q 1073 945 1078 898 q 1084 850 1104 813 q 1124 776 1158 753 q 1191 730 1236 730 z m 410 904 q 387 825 393 746 q 399 667 434 604 q 469 541 532 502 q 595 462 685 462 q 772 462 830 498 q 887 534 914 588 q 940 642 936 705 q 931 768 893 822 q 855 876 784 912 q 713 948 607 948 q 549 948 500 936 q 452 925 410 904 z m 762 1 q 796 22 822 48 q 847 74 864 102 q 882 130 891 157 q 900 184 900 208 q 900 240 884 260 q 867 281 833 281 q 814 281 795 274 q 776 266 760 251 q 743 236 731 214 q 719 193 713 164 q 704 118 716 76 q 729 33 762 1 z"},"`":{"x_min":0,"x_max":247,"ha":247,"o":"m 208 511 l 19 601 q 12 604 10 614 q 9 625 14 636 q 18 647 28 656 q 39 664 55 664 q 69 664 87 655 l 236 550 q 238 543 236 534 q 235 526 232 520 q 228 513 222 510 q 216 508 208 511 z"},"k":{"x_min":0,"x_max":547,"ha":547,"o":"m -50 207 l 140 700 q 161 700 182 695 q 204 690 222 680 q 241 670 254 656 q 266 641 268 622 q 260 600 250 570 q 239 539 226 503 l 148 282 q 224 315 271 362 q 318 408 330 459 q 345 465 360 465 q 379 465 397 458 q 415 452 430 442 q 444 431 452 418 q 461 406 461 394 q 441 348 390 318 q 338 289 262 264 q 270 206 304 178 q 338 149 380 149 q 417 149 454 170 q 490 192 514 236 l 557 226 q 536 191 508 160 q 480 129 448 106 q 416 83 382 70 q 348 57 315 57 q 258 57 213 100 q 168 143 152 232 l 127 225 l 116 193 q 103 157 92 126 q 82 96 74 74 q -50 74 -50 207 z"},"u":{"x_min":0,"x_max":579,"ha":579,"o":"m 480 381 q 471 361 458 335 q 444 309 431 282 q 418 254 408 227 q 397 200 394 180 q 390 159 396 146 q 402 133 421 133 q 450 133 485 162 q 520 190 546 236 l 589 226 q 547 155 501 122 q 455 88 399 88 q 351 88 316 111 q 282 134 268 174 q 236 132 193 103 q 150 74 88 74 q 25 74 -7 105 q -39 136 -39 186 q -39 211 -32 240 q -24 270 -12 304 q 0 337 14 375 q 29 413 44 455 q 71 455 96 448 q 120 442 140 431 q 159 420 171 406 q 183 392 184 377 q 169 347 152 305 q 135 263 126 225 q 116 187 118 160 q 120 133 141 133 q 156 133 175 146 q 194 160 213 181 q 232 202 249 228 q 266 255 278 281 l 338 460 q 359 460 383 454 q 407 449 428 439 q 449 429 464 414 q 478 400 480 381 z"},"]":{"x_min":0,"x_max":496,"ha":496,"o":"m 269 1076 q 312 1069 343 1065 q 374 1061 401 1058 q 428 1055 454 1052 q 480 1049 513 1045 q 528 1047 542 1040 q 555 1034 564 1019 q 573 1004 576 980 q 578 956 571 924 q 566 901 552 855 q 539 809 520 748 q 500 686 476 614 q 453 542 428 468 q 404 394 380 322 q 356 249 335 188 q 314 126 298 80 q 282 33 274 10 l 67 0 q 29 -1 12 21 q -5 43 2 75 q 47 68 78 64 q 110 59 138 56 l 499 1009 l 334 1001 q 296 1000 279 1022 q 262 1044 269 1076 z"},"U":{"x_min":0,"x_max":2235,"ha":2235,"o":"m 494 1222 q 476 1229 469 1242 q 462 1256 469 1270 q 476 1283 498 1293 q 519 1303 558 1303 q 610 1303 659 1283 q 708 1263 752 1226 q 795 1188 832 1133 q 868 1078 893 1007 q 1021 1040 1160 1056 q 1300 1073 1449 1073 q 1640 1073 1838 1046 l 1897 1038 q 1835 973 1774 897 q 1713 821 1657 742 q 1601 663 1554 584 q 1506 506 1471 436 q 1436 366 1416 308 q 1396 250 1396 213 q 1396 166 1426 140 q 1457 113 1511 113 q 1553 113 1600 130 q 1648 147 1695 177 q 1742 207 1786 248 q 1829 290 1863 339 q 1897 440 1947 540 q 1997 639 2056 726 q 2115 814 2180 886 q 2245 958 2310 1004 q 2330 1002 2345 1002 q 2360 1001 2374 1004 q 2388 1007 2403 1012 q 2418 1018 2437 1028 q 2444 1029 2445 1025 q 2446 1021 2446 1017 q 2392 958 2339 888 q 2286 817 2238 742 q 2191 667 2150 591 q 2110 515 2080 445 q 2050 375 2034 314 q 2017 254 2017 211 q 2017 133 2076 133 q 2112 133 2148 160 q 2185 188 2213 236 l 2256 226 q 2206 140 2140 96 q 2074 51 1994 51 q 1907 51 1867 102 q 1827 152 1840 245 q 1750 149 1656 100 q 1562 51 1468 51 q 1357 51 1295 116 q 1233 182 1232 299 q 1186 206 1104 122 q 1021 39 916 -24 q 810 -86 688 -122 q 567 -159 443 -159 q 337 -159 254 -132 q 172 -105 116 -58 q 59 -11 30 54 q 0 119 0 194 q 0 263 25 339 q 50 415 99 491 q 148 567 220 642 q 293 716 389 782 q 485 848 603 904 q 721 959 860 998 q 841 1049 812 1095 q 783 1141 748 1176 q 712 1210 672 1230 q 631 1250 589 1250 q 540 1250 494 1222 z m 943 765 q 1104 765 1191 696 q 1278 626 1280 496 q 1320 573 1385 639 q 1450 705 1524 766 q 1598 828 1674 888 q 1749 948 1809 1013 q 1724 1026 1641 1032 q 1558 1038 1477 1038 q 1323 1038 1180 1017 q 1038 996 910 955 q 937 862 943 765 z m 943 671 q 937 569 898 476 q 860 384 800 314 q 741 243 666 202 q 591 160 511 160 q 437 160 399 197 q 361 234 361 305 q 361 360 384 416 q 406 471 444 522 q 483 573 536 618 q 589 662 650 695 q 711 728 778 746 q 844 765 910 766 q 904 849 878 944 q 698 884 562 794 q 427 704 336 602 q 246 499 201 392 q 156 286 156 192 q 156 129 177 74 q 198 20 240 -20 q 281 -59 343 -82 q 405 -104 488 -104 q 573 -104 658 -80 q 742 -57 820 -16 q 898 24 965 79 q 1032 134 1082 197 q 1131 260 1159 328 q 1187 397 1187 465 q 1187 565 1124 618 q 1061 671 943 671 z m 413 296 q 413 197 520 197 q 589 197 656 238 q 724 278 778 345 q 833 412 868 498 q 904 585 910 677 q 853 677 794 661 q 735 645 680 618 q 624 590 576 552 q 527 515 491 473 q 455 431 434 386 q 413 340 413 296 z"},"o":{"x_min":0,"x_max":505,"ha":505,"o":"m 425 318 q 425 270 398 226 q 372 183 330 150 q 289 117 238 98 q 187 78 137 78 q 102 78 70 88 q 38 98 14 116 q -10 135 -24 162 q -39 189 -39 222 q -39 267 -14 308 q 12 350 54 382 q 96 415 149 434 q 202 453 256 453 q 289 453 320 445 q 351 437 374 420 q 397 404 411 378 q 425 353 425 318 z m 143 110 q 167 110 190 133 q 213 156 232 190 q 251 225 264 266 q 277 306 281 340 q 285 375 278 398 q 270 421 248 421 q 226 421 203 398 q 180 375 160 340 q 141 306 127 266 q 113 225 108 190 q 104 156 112 133 q 119 110 143 110 z"},"N":{"x_min":0,"x_max":2638,"ha":2638,"o":"m 2560 1107 q 2560 1074 2552 1050 q 2543 1025 2530 1009 q 2516 993 2498 986 q 2481 978 2464 978 q 2441 978 2421 990 q 2401 1003 2392 1028 q 2413 1044 2427 1058 q 2441 1072 2449 1086 q 2457 1100 2460 1116 q 2464 1131 2464 1150 q 2464 1198 2436 1244 q 2407 1291 2356 1332 q 2305 1373 2234 1408 q 2163 1442 2078 1467 q 1993 1492 1896 1506 q 1800 1520 1699 1520 q 1551 1520 1410 1490 q 1268 1460 1143 1404 q 1018 1349 915 1270 q 812 1191 741 1094 q 834 1085 910 1058 q 986 1030 1040 987 q 1094 944 1124 888 q 1154 833 1154 768 q 1154 716 1134 672 q 1115 629 1080 598 q 1046 567 998 550 q 949 532 891 532 q 795 532 723 577 q 651 622 611 694 q 571 767 568 858 q 566 950 611 1043 q 508 1030 423 982 q 338 934 277 860 q 216 785 182 688 q 149 590 149 477 q 149 354 189 250 q 229 147 300 73 q 372 -1 471 -42 q 570 -84 689 -84 q 724 -84 760 -80 q 796 -76 834 -68 q 802 1 802 89 q 802 165 825 232 q 848 298 888 348 q 928 397 982 426 q 1036 455 1098 455 q 1179 455 1227 408 q 1275 361 1275 281 q 1275 224 1249 170 q 1223 115 1176 67 q 1129 19 1062 -20 q 995 -60 914 -86 q 978 -150 1085 -150 q 1185 -150 1272 -96 q 1359 -43 1437 46 q 1515 136 1585 252 q 1655 368 1722 494 q 1789 620 1854 746 q 1919 871 1987 980 q 2055 1088 2127 1170 q 2199 1253 2279 1291 q 2300 1300 2299 1269 q 2256 1242 2249 1190 q 2242 1137 2256 1066 q 2269 996 2296 910 q 2324 824 2351 730 q 2378 635 2397 535 q 2416 435 2413 337 q 2464 451 2514 568 q 2564 686 2616 796 q 2668 905 2724 1002 q 2781 1098 2845 1170 q 2909 1242 2982 1284 q 3055 1325 3141 1325 q 3187 1325 3212 1313 q 3236 1301 3236 1278 q 3236 1258 3219 1244 q 3202 1231 3176 1231 q 3160 1252 3142 1262 q 3124 1271 3097 1271 q 3042 1271 2989 1236 q 2936 1201 2885 1140 q 2834 1080 2785 999 q 2736 918 2689 826 q 2642 734 2598 636 q 2555 538 2514 444 q 2473 349 2435 262 q 2397 176 2363 108 q 2332 38 2275 -27 q 2246 -28 2247 1 q 2277 65 2284 132 q 2290 198 2280 267 q 2271 336 2250 406 q 2229 477 2205 548 q 2181 619 2157 690 q 2133 760 2118 830 q 2104 899 2102 966 q 2101 1034 2120 1099 q 2063 1020 2016 920 q 1968 819 1924 708 q 1880 598 1836 483 q 1793 368 1744 260 q 1696 153 1640 58 q 1585 -36 1516 -107 q 1447 -178 1362 -219 q 1277 -260 1171 -260 q 1065 -260 982 -219 q 900 -178 853 -103 q 751 -127 648 -127 q 506 -127 386 -82 q 267 -37 182 44 q 96 124 48 236 q 0 347 0 481 q 0 614 47 725 q 94 836 179 918 q 264 999 382 1046 q 501 1093 644 1097 q 718 1203 828 1289 q 938 1375 1075 1436 q 1212 1496 1370 1529 q 1528 1562 1697 1562 q 1819 1562 1930 1545 q 2041 1528 2137 1498 q 2233 1468 2311 1426 q 2389 1384 2444 1333 q 2500 1282 2530 1225 q 2560 1168 2560 1107 z m 1107 764 q 1107 824 1078 876 q 1048 927 996 965 q 943 1003 871 1025 q 799 1047 713 1048 q 685 993 674 936 q 663 879 668 826 q 673 773 692 727 q 712 681 744 646 q 775 612 818 592 q 861 572 912 572 q 955 572 990 586 q 1026 600 1052 626 q 1078 651 1092 686 q 1107 722 1107 764 z m 888 -54 q 961 -32 1024 4 q 1088 39 1134 84 q 1181 128 1208 180 q 1235 231 1235 284 q 1235 346 1200 382 q 1164 418 1099 418 q 1042 418 996 390 q 949 362 916 316 q 882 271 864 214 q 846 157 846 99 q 846 57 856 18 q 866 -21 888 -54 z"},"+":{"x_min":0,"x_max":493,"ha":493,"o":"m 107 439 l 214 436 l 270 590 q 280 598 292 598 q 305 598 318 590 q 330 581 336 566 l 297 433 l 451 428 q 458 396 441 379 q 424 362 386 363 l 276 363 l 223 181 q 182 187 162 211 q 141 235 151 264 l 187 363 l 42 363 q 35 398 54 419 q 72 440 107 439 z"},"G":{"x_min":0,"x_max":1788,"ha":1788,"o":"m 1283 313 q 1327 313 1372 328 q 1416 343 1456 370 q 1497 398 1531 436 q 1565 474 1587 520 q 1590 540 1592 560 q 1595 581 1597 602 q 1597 629 1610 650 q 1622 670 1644 684 q 1667 697 1698 702 q 1730 707 1769 702 q 1755 651 1732 604 q 1710 558 1681 520 q 1683 497 1682 468 q 1680 439 1676 406 q 1663 292 1630 187 q 1598 82 1550 -9 q 1503 -100 1442 -175 q 1381 -250 1311 -303 q 1241 -356 1164 -385 q 1088 -414 1010 -414 q 937 -414 878 -390 q 820 -366 780 -324 q 741 -283 724 -228 q 706 -172 716 -109 q 724 -56 747 -20 q 770 17 802 40 q 833 62 870 72 q 907 82 943 82 q 980 82 1014 73 q 1047 64 1070 50 q 1094 35 1104 16 q 1115 -3 1106 -23 q 1098 -40 1082 -49 q 1065 -58 1048 -58 q 1037 -58 1029 -54 q 1029 -7 999 16 q 969 39 928 39 q 901 39 874 30 q 846 21 822 3 q 798 -15 781 -40 q 764 -66 758 -99 q 751 -138 762 -171 q 774 -204 801 -227 q 828 -250 869 -263 q 910 -276 961 -276 q 1064 -276 1159 -224 q 1254 -173 1334 -81 q 1413 11 1474 138 q 1534 266 1568 419 q 1505 344 1418 304 q 1332 263 1234 263 q 1154 263 1094 292 q 1009 209 886 162 q 764 114 618 114 q 485 114 372 154 q 259 194 176 264 q 94 335 47 432 q 0 528 0 641 q 0 762 54 870 q 108 979 208 1060 q 263 1105 326 1136 q 390 1168 457 1190 q 524 1212 593 1226 q 662 1240 728 1250 q 794 1259 856 1266 q 918 1272 971 1279 q 957 1313 957 1347 q 957 1403 994 1435 q 1030 1467 1094 1467 q 1152 1467 1186 1442 q 1220 1416 1220 1371 q 1220 1325 1182 1298 q 1145 1272 1081 1255 q 1109 1207 1162 1169 q 1214 1131 1286 1103 q 1352 1140 1430 1161 q 1509 1182 1603 1182 q 1707 1182 1756 1158 q 1806 1134 1806 1104 q 1806 1087 1792 1070 q 1777 1054 1749 1040 q 1721 1027 1680 1018 q 1640 1009 1588 1008 q 1534 1004 1481 1008 q 1428 1012 1377 1023 q 1322 978 1277 920 q 1232 862 1199 799 q 1238 720 1238 623 q 1238 551 1217 487 q 1196 423 1158 367 q 1178 341 1209 327 q 1240 313 1283 313 z m 1063 1294 q 1115 1305 1145 1324 q 1175 1344 1175 1376 q 1175 1402 1158 1418 q 1140 1435 1114 1435 q 1085 1435 1069 1414 q 1053 1393 1053 1354 q 1053 1338 1056 1323 q 1058 1308 1063 1294 z m 1062 311 q 1005 351 978 416 q 950 482 950 560 q 950 639 977 724 q 1004 809 1055 887 q 1007 917 946 933 q 884 949 811 949 q 718 949 638 924 q 558 898 500 854 q 441 809 408 748 q 374 688 374 617 q 374 536 416 488 q 459 441 532 441 q 558 441 582 447 q 607 453 628 463 q 649 473 665 488 q 681 502 690 518 q 701 536 700 554 q 700 573 693 590 q 686 606 674 620 q 661 635 646 645 q 646 666 664 684 q 682 701 705 701 q 727 701 741 684 q 755 666 760 639 q 764 612 759 579 q 754 546 737 516 q 708 462 648 431 q 589 400 517 400 q 465 400 422 416 q 380 433 350 464 q 319 494 302 536 q 285 578 285 629 q 285 710 326 782 q 367 854 436 909 q 506 964 598 996 q 690 1028 792 1028 q 880 1028 955 1004 q 1030 979 1088 934 q 1146 1009 1229 1067 q 1151 1099 1090 1142 q 1030 1185 995 1236 q 917 1221 824 1206 q 732 1192 638 1166 q 544 1141 455 1100 q 366 1058 295 989 q 218 914 176 818 q 135 721 135 616 q 135 516 174 431 q 212 346 280 284 q 349 223 443 188 q 537 154 649 154 q 774 154 880 196 q 987 238 1062 311 z m 1433 1064 q 1516 1049 1610 1049 q 1680 1052 1717 1068 q 1754 1084 1754 1101 q 1754 1114 1732 1124 q 1709 1133 1661 1133 q 1598 1133 1541 1114 q 1484 1096 1433 1064 z m 1136 404 q 1165 452 1181 506 q 1197 560 1197 617 q 1197 653 1190 686 q 1184 718 1173 747 q 1152 699 1138 651 q 1125 603 1120 559 q 1115 515 1119 476 q 1123 436 1136 404 z"},"q":{"x_min":0,"x_max":587,"ha":587,"o":"m 189 -22 l 253 138 q 223 112 186 95 q 149 78 105 78 q 39 78 0 116 q -39 154 -39 217 q -39 264 -17 306 q 5 349 42 382 q 79 414 128 434 q 177 453 231 453 q 277 453 310 439 q 344 425 357 399 l 379 455 q 400 455 422 450 q 443 445 462 435 q 480 425 492 410 q 505 396 507 377 q 499 355 488 324 q 478 294 465 258 l 355 -52 q 342 -88 332 -118 q 321 -149 313 -171 q 252 -171 220 -130 q 189 -88 189 -22 z m 337 355 q 329 371 312 381 q 295 391 272 391 q 242 391 212 374 q 181 357 157 330 q 133 302 118 268 q 103 234 103 200 q 103 141 149 141 q 171 141 192 154 q 214 167 234 188 q 254 208 272 233 q 289 258 303 282 q 317 306 326 326 q 334 345 337 355 z"},"d":{"x_min":0,"x_max":559,"ha":559,"o":"m 569 226 q 527 155 481 122 q 435 88 379 88 q 334 88 302 108 q 270 127 253 162 q 227 128 188 108 q 149 88 103 88 q 39 88 0 126 q -39 164 -39 229 q -39 275 -19 316 q 1 357 36 388 q 71 418 118 436 q 165 453 218 453 q 276 453 311 433 l 403 700 q 429 700 452 694 q 475 687 492 676 q 510 666 521 652 q 532 638 533 622 q 524 596 506 551 q 488 506 468 454 q 449 401 432 346 q 414 292 404 248 q 395 205 398 177 q 401 149 423 149 q 434 149 448 156 q 461 163 476 175 q 490 187 503 202 q 516 218 526 236 z m 298 397 q 292 399 286 400 q 279 401 271 401 q 241 401 211 384 q 181 367 157 340 q 133 312 118 278 q 103 244 103 210 q 103 151 147 151 q 173 151 199 173 q 225 195 240 228 q 246 248 254 272 q 262 295 270 318 q 278 340 286 361 q 293 382 298 397 z"},"1":{"x_min":0,"x_max":301,"ha":301,"o":"m 52 216 l 176 605 l 105 545 q 88 559 84 572 q 79 585 89 591 l 205 695 q 251 694 265 682 q 279 671 274 637 l 176 83 q 101 83 66 120 q 32 158 52 216 z"},"5":{"x_min":0,"x_max":523,"ha":523,"o":"m 432 701 q 454 694 462 670 q 469 646 462 622 q 455 597 433 578 q 411 560 374 564 l 159 601 l 138 476 q 163 480 186 482 q 208 484 229 484 q 282 484 328 470 q 375 456 410 430 q 444 404 464 368 q 484 331 484 285 q 484 235 461 198 q 438 161 400 137 q 363 113 316 101 q 269 89 222 89 q 182 89 144 98 q 106 106 78 122 q 49 139 32 164 q 15 188 15 220 q 16 255 36 276 q 56 297 87 297 q 107 297 124 289 q 124 248 132 218 q 141 189 155 170 q 169 152 187 143 q 205 134 224 134 q 245 134 266 144 q 286 153 302 172 q 318 190 328 217 q 338 244 338 278 q 338 333 313 363 q 288 393 249 407 q 210 421 163 424 q 116 426 73 426 l 130 673 q 149 671 175 669 q 201 667 231 667 q 258 667 286 668 q 314 670 340 674 q 367 678 390 684 q 414 691 432 701 z"}}}
